<svg width="363" height="600" viewBox="0 0 363 600" version="1.1" xmlns="http://www.w3.org/2000/svg" xmlns:xlink="http://www.w3.org/1999/xlink">
<title>visuel</title>
<desc>Created using Figma</desc>
<g id="Canvas" transform="translate(-7543 -5358)">
<clipPath id="clip-0" clip-rule="evenodd">
<path d="M 7543 5358L 7906 5358L 7906 5958L 7543 5958L 7543 5358Z" fill="#FFFFFF"/>
</clipPath>
<g id="visuel" clip-path="url(#clip-0)">
<g id="Group">
<g id="Vector 3">
<use xlink:href="#path0_stroke" transform="translate(7777.77 5375.26)" fill="#FFFFFF"/>
</g>
<g id="Vector 4">
<use xlink:href="#path1_stroke" transform="translate(7713.99 5358)" fill="#FFFFFF"/>
</g>
<g id="Vector 5">
<use xlink:href="#path2_stroke" transform="translate(7713.99 5383.89)" fill="#FFFFFF"/>
</g>
<g id="Vector 6">
<use xlink:href="#path3_stroke" transform="translate(7644.89 5358)" fill="#FFFFFF"/>
</g>
<g id="Vector 7">
<use xlink:href="#path4_stroke" transform="translate(7675.12 5387.87)" fill="#FFFFFF"/>
</g>
<g id="Vector 8">
<use xlink:href="#path5_stroke" transform="translate(7626.96 5371.27)" fill="#FFFFFF"/>
</g>
<g id="Vector 9">
<use xlink:href="#path6_stroke" transform="translate(7617.65 5434.33)" fill="#FFFFFF"/>
</g>
<g id="Vector 10">
<use xlink:href="#path7_stroke" transform="matrix(0.999492 -0.0318772 0.0319421 0.99949 7543 5467.5)" fill="#FFFFFF"/>
</g>
<g id="Vector 11">
<use xlink:href="#path8_stroke" transform="matrix(0.998639 0.0521612 -0.0522671 0.998633 7547.38 5514.96)" fill="#FFFFFF"/>
</g>
<g id="Vector 12">
<use xlink:href="#path9_stroke" transform="translate(7609.35 5376.58)" fill="#FFFFFF"/>
</g>
<g id="Vector 13">
<use xlink:href="#path10_stroke" transform="translate(7554.2 5459.55)" fill="#FFFFFF"/>
</g>
<g id="Vector 14">
<use xlink:href="#path11_stroke" transform="translate(7558.52 5424.04)" fill="#FFFFFF"/>
</g>
<g id="Vector 15">
<use xlink:href="#path12_stroke" transform="translate(7564.83 5432)" fill="#FFFFFF"/>
</g>
<g id="Vector 16">
<use xlink:href="#path13_stroke" transform="translate(7574.14 5379.24)" fill="#FFFFFF"/>
</g>
<g id="Vector 17">
<use xlink:href="#path14_stroke" transform="translate(7837.24 5428.69)" fill="#FFFFFF"/>
</g>
<g id="Vector 18">
<use xlink:href="#path15_stroke" transform="translate(7840.89 5456.56)" fill="#FFFFFF"/>
</g>
<g id="Vector 19">
<use xlink:href="#path16_stroke" transform="translate(7866.14 5462.87)" fill="#FFFFFF"/>
</g>
<g id="Vector 20">
<use xlink:href="#path17_stroke" transform="translate(7878.1 5496.05)" fill="#FFFFFF"/>
</g>
<g id="Vector 21">
<use xlink:href="#path18_stroke" transform="translate(7878.76 5536.54)" fill="#FFFFFF"/>
</g>
<g id="Vector 22">
<use xlink:href="#path19_stroke" transform="matrix(0.992034 -0.125971 0.126223 0.992002 7878.76 5581.25)" fill="#FFFFFF"/>
</g>
<g id="Vector 23">
<use xlink:href="#path20_stroke" transform="translate(7884.41 5604.57)" fill="#FFFFFF"/>
</g>
<g id="Vector 24">
<use xlink:href="#path21_stroke" transform="translate(7723.96 5803.69)" fill="#FFFFFF"/>
</g>
<g id="Vector 25">
<use xlink:href="#path22_stroke" transform="translate(7724.29 5818.29)" fill="#FFFFFF"/>
</g>
<g id="Vector 26">
<use xlink:href="#path23_stroke" transform="translate(7734.25 5804.02)" fill="#FFFFFF"/>
</g>
<g id="Vector 27">
<use xlink:href="#path24_stroke" transform="translate(7765.15 5812.65)" fill="#FFFFFF"/>
</g>
<g id="Vector 28">
<use xlink:href="#path25_stroke" transform="translate(7749.87 5819.28)" fill="#FFFFFF"/>
</g>
<g id="Vector 29">
<use xlink:href="#path26_stroke" transform="translate(7768.14 5820.28)" fill="#FFFFFF"/>
</g>
<g id="Vector 30">
<use xlink:href="#path27_stroke" transform="translate(7788.74 5818.95)" fill="#FFFFFF"/>
</g>
<g id="Vector 31">
<use xlink:href="#path28_stroke" transform="translate(7802.69 5820.61)" fill="#FFFFFF"/>
</g>
<g id="Vector 24">
<use xlink:href="#path29_stroke" transform="matrix(-1 0 0 1 7712.66 5804.02)" fill="#FFFFFF"/>
</g>
<g id="Vector 25">
<use xlink:href="#path30_stroke" transform="matrix(-1 0 0 1 7712.35 5818.62)" fill="#FFFFFF"/>
</g>
<g id="Vector 26">
<use xlink:href="#path31_stroke" transform="matrix(-1 0 0 1 7702.85 5804.35)" fill="#FFFFFF"/>
</g>
<g id="Vector 27">
<use xlink:href="#path32_stroke" transform="matrix(-1 0 0 1 7673.43 5812.98)" fill="#FFFFFF"/>
</g>
<g id="Vector 28">
<use xlink:href="#path33_stroke" transform="matrix(-1 0 0 1 7687.98 5819.61)" fill="#FFFFFF"/>
</g>
<g id="Vector 29">
<use xlink:href="#path34_stroke" transform="matrix(-1 0 0 1 7670.58 5820.61)" fill="#FFFFFF"/>
</g>
<g id="Vector 30">
<use xlink:href="#path35_stroke" transform="matrix(-1 0 0 1 7650.97 5819.28)" fill="#FFFFFF"/>
</g>
<g id="Vector 31">
<use xlink:href="#path36_stroke" transform="matrix(-1 0 0 1 7637.68 5820.94)" fill="#FFFFFF"/>
</g>
<g id="Vector 32">
<use xlink:href="#path37_stroke" transform="translate(7551.21 5576.36)" fill="#FFFFFF"/>
</g>
<g id="Vector 33">
<use xlink:href="#path38_stroke" transform="translate(7556.53 5706.12)" fill="#FFFFFF"/>
</g>
<g id="Vector 34">
<use xlink:href="#path39_stroke" transform="translate(7556.53 5736.98)" fill="#FFFFFF"/>
</g>
<g id="Vector 35">
<use xlink:href="#path40_stroke" transform="translate(7561.18 5766.85)" fill="#FFFFFF"/>
</g>
<g id="Vector 36">
<use xlink:href="#path41_stroke" transform="translate(7562.84 5780.79)" fill="#FFFFFF"/>
</g>
<g id="Vector 37">
<use xlink:href="#path42_stroke" transform="translate(7572.14 5800.04)" fill="#FFFFFF"/>
</g>
<g id="Vector 38">
<use xlink:href="#path43_stroke" transform="translate(7572.48 5818.95)" fill="#FFFFFF"/>
</g>
<g id="Vector 39">
<use xlink:href="#path44_stroke" transform="translate(7583.44 5835.54)" fill="#FFFFFF"/>
</g>
<g id="Vector 40">
<use xlink:href="#path45_stroke" transform="translate(7594.4 5848.82)" fill="#FFFFFF"/>
</g>
<g id="Vector 41">
<use xlink:href="#path46_stroke" transform="translate(7603.04 5856.45)" fill="#FFFFFF"/>
</g>
<g id="Vector 33">
<use xlink:href="#path47_stroke" transform="matrix(-1 0 0 1 7882.75 5706.45)" fill="#FFFFFF"/>
</g>
<g id="Vector 34">
<use xlink:href="#path48_stroke" transform="matrix(-1 0 0 1 7882.75 5737.31)" fill="#FFFFFF"/>
</g>
<g id="Vector 35">
<use xlink:href="#path49_stroke" transform="matrix(-1 0 0 1 7878.12 5767.18)" fill="#FFFFFF"/>
</g>
<g id="Vector 36">
<use xlink:href="#path50_stroke" transform="matrix(-1 0 0 1 7876.47 5781.12)" fill="#FFFFFF"/>
</g>
<g id="Vector 37">
<use xlink:href="#path51_stroke" transform="matrix(-1 0 0 1 7867.21 5800.37)" fill="#FFFFFF"/>
</g>
<g id="Vector 38">
<use xlink:href="#path52_stroke" transform="matrix(-1 0 0 1 7866.88 5819.28)" fill="#FFFFFF"/>
</g>
<g id="Vector 39">
<use xlink:href="#path53_stroke" transform="matrix(-1 0 0 1 7855.98 5835.88)" fill="#FFFFFF"/>
</g>
<g id="Vector 40">
<use xlink:href="#path54_stroke" transform="matrix(-1 0 0 1 7845.07 5849.15)" fill="#FFFFFF"/>
</g>
<g id="Vector 41">
<use xlink:href="#path55_stroke" transform="matrix(-1 0 0 1 7836.48 5856.78)" fill="#FFFFFF"/>
</g>
<g id="Vector 42">
<use xlink:href="#path56_stroke" transform="translate(7709.34 5881.34)" fill="#FFFFFF"/>
</g>
<g id="Vector 43">
<use xlink:href="#path57_stroke" transform="translate(7718.31 5880.68)" fill="#FFFFFF"/>
</g>
<g id="Vector 44">
<use xlink:href="#path58_stroke" transform="translate(7710.67 5892.29)" fill="#FFFFFF"/>
</g>
<g id="Vector 49">
<use xlink:href="#path59_stroke" transform="translate(7675.46 5913.86)" fill="#FFFFFF"/>
</g>
<g id="Vector 49">
<use xlink:href="#path59_stroke" transform="matrix(-1 0 0 1 7768.47 5913.53)" fill="#FFFFFF"/>
</g>
<g id="Vector 45">
<use xlink:href="#path60_stroke" transform="translate(7614.66 5884.66)" fill="#FFFFFF"/>
</g>
<g id="Vector 46">
<use xlink:href="#path61_stroke" transform="translate(7637.59 5894.61)" fill="#FFFFFF"/>
</g>
<g id="Vector 47">
<use xlink:href="#path62_stroke" transform="translate(7658.18 5894.61)" fill="#FFFFFF"/>
</g>
<g id="Vector 48">
<use xlink:href="#path63_stroke" transform="translate(7663.16 5897.6)" fill="#FFFFFF"/>
</g>
<g id="Vector 45">
<use xlink:href="#path64_stroke" transform="matrix(-1 0 0 1 7828.27 5884.99)" fill="#FFFFFF"/>
</g>
<g id="Vector 46">
<use xlink:href="#path65_stroke" transform="matrix(-1 0 0 1 7805.35 5894.88)" fill="#FFFFFF"/>
</g>
<g id="Vector 47">
<use xlink:href="#path66_stroke" transform="matrix(-1 0 0 1 7784.75 5894.88)" fill="#FFFFFF"/>
</g>
<g id="Vector 48">
<use xlink:href="#path67_stroke" transform="matrix(-1 0 0 1 7779.77 5897.85)" fill="#FFFFFF"/>
</g>
<g id="Vector 50">
<use xlink:href="#path68_stroke" transform="translate(7709.01 5935.1)" fill="#FFFFFF"/>
</g>
<g id="Vector 51">
<use xlink:href="#path69_stroke" transform="translate(7725.95 5935.77)" fill="#FFFFFF"/>
</g>
<g id="Vector 52">
<use xlink:href="#path70_stroke" transform="translate(7719.64 5938.09)" fill="#FFFFFF"/>
</g>
<g id="Vector 53">
<use xlink:href="#path71_stroke" transform="translate(7698.71 5910.21)" fill="#FFFFFF"/>
</g>
<g id="Vector 53">
<use xlink:href="#path71_stroke" transform="matrix(-1 0 0 1 7746.55 5910.21)" fill="#FFFFFF"/>
</g>
<g id="Vector 54">
<use xlink:href="#path72_stroke" transform="translate(7700.37 5901.92)" fill="#FFFFFF"/>
</g>
<g id="Vector 55">
<use xlink:href="#path73_stroke" transform="translate(7712.66 5905.9)" fill="#FFFFFF"/>
</g>
<g id="Vector 56">
<use xlink:href="#path74_stroke" transform="translate(7723.96 5909.22)" fill="#FFFFFF"/>
</g>
<g id="Vector 57">
<use xlink:href="#path75_stroke" transform="translate(7679.77 5654.35)" fill="#FFFFFF"/>
</g>
<g id="Vector 58">
<use xlink:href="#path76_stroke" transform="translate(7658.85 5647.38)" fill="#FFFFFF"/>
</g>
<g id="Vector 59">
<use xlink:href="#path77_stroke" transform="translate(7668.48 5655.01)" fill="#FFFFFF"/>
</g>
<g id="Vector 60">
<use xlink:href="#path78_stroke" transform="translate(7639.91 5645.06)" fill="#FFFFFF"/>
</g>
<g id="Vector 61">
<use xlink:href="#path79_stroke" transform="translate(7626.29 5644.06)" fill="#FFFFFF"/>
</g>
<g id="Vector 62">
<use xlink:href="#path80_stroke" transform="translate(7614 5645.72)" fill="#FFFFFF"/>
</g>
<g id="Vector 63">
<use xlink:href="#path81_stroke" transform="translate(7629.61 5653.02)" fill="#FFFFFF"/>
</g>
<g id="Vector 64">
<use xlink:href="#path82_stroke" transform="translate(7616.66 5653.02)" fill="#FFFFFF"/>
</g>
<g id="Vector 65">
<use xlink:href="#path83_stroke" transform="translate(7607.02 5648.71)" fill="#FFFFFF"/>
</g>
<g id="Vector 66">
<use xlink:href="#path84_stroke" transform="translate(7601.04 5639.42)" fill="#FFFFFF"/>
</g>
<g id="Vector 67">
<use xlink:href="#path85_stroke" transform="translate(7591.08 5647.05)" fill="#FFFFFF"/>
</g>
<g id="Vector 68">
<use xlink:href="#path86_stroke" transform="translate(7590.41 5639.08)" fill="#FFFFFF"/>
</g>
<g id="Vector 69">
<use xlink:href="#path87_stroke" transform="translate(7582.11 5649.04)" fill="#FFFFFF"/>
</g>
<g id="Vector 70">
<use xlink:href="#path88_stroke" transform="translate(7582.44 5659.66)" fill="#FFFFFF"/>
</g>
<g id="Vector 71">
<use xlink:href="#path89_stroke" transform="translate(7612.67 5639.42)" fill="#FFFFFF"/>
</g>
<g id="Vector 57">
<use xlink:href="#path90_stroke" transform="matrix(-1 0 0 1 7755.56 5652.54)" fill="#FFFFFF"/>
</g>
<g id="Vector 58">
<use xlink:href="#path91_stroke" transform="matrix(-1 0 0 1 7776.55 5645.64)" fill="#FFFFFF"/>
</g>
<g id="Vector 59">
<use xlink:href="#path92_stroke" transform="matrix(-1 0 0 1 7766.89 5653.2)" fill="#FFFFFF"/>
</g>
<g id="Vector 60">
<use xlink:href="#path93_stroke" transform="matrix(-1 0 0 1 7795.54 5643.34)" fill="#FFFFFF"/>
</g>
<g id="Vector 61">
<use xlink:href="#path94_stroke" transform="matrix(-1 0 0 1 7809.2 5642.35)" fill="#FFFFFF"/>
</g>
<g id="Vector 62">
<use xlink:href="#path95_stroke" transform="matrix(-1 0 0 1 7821.53 5644)" fill="#FFFFFF"/>
</g>
<g id="Vector 63">
<use xlink:href="#path96_stroke" transform="matrix(-1 0 0 1 7805.87 5651.22)" fill="#FFFFFF"/>
</g>
<g id="Vector 64">
<use xlink:href="#path97_stroke" transform="matrix(-1 0 0 1 7818.86 5651.22)" fill="#FFFFFF"/>
</g>
<g id="Vector 65">
<use xlink:href="#path98_stroke" transform="matrix(-1 0 0 1 7828.52 5646.95)" fill="#FFFFFF"/>
</g>
<g id="Vector 66">
<use xlink:href="#path99_stroke" transform="matrix(-1 0 0 1 7834.52 5637.75)" fill="#FFFFFF"/>
</g>
<g id="Vector 67">
<use xlink:href="#path100_stroke" transform="matrix(-1 0 0 1 7844.52 5645.31)" fill="#FFFFFF"/>
</g>
<g id="Vector 68">
<use xlink:href="#path101_stroke" transform="matrix(-1 0 0 1 7845.18 5637.43)" fill="#FFFFFF"/>
</g>
<g id="Vector 69">
<use xlink:href="#path102_stroke" transform="matrix(-1 0 0 1 7853.51 5647.28)" fill="#FFFFFF"/>
</g>
<g id="Vector 70">
<use xlink:href="#path103_stroke" transform="matrix(-1 0 0 1 7853.18 5657.8)" fill="#FFFFFF"/>
</g>
<g id="Vector 71">
<use xlink:href="#path104_stroke" transform="matrix(-1 0 0 1 7822.86 5637.75)" fill="#FFFFFF"/>
</g>
</g>
</g>
</g>
<defs>
<path id="path0_stroke" d="M 0 0L 1.11712 -2.23652L -2.0457 1.43704L 0 0ZM 53.1513 26.5487L 55.6513 26.5487L 55.6513 25.0029L 54.2685 24.3121L 53.1513 26.5487ZM 53.1513 75.6637L 51.1056 77.1007L 55.6513 83.5717L 55.6513 75.6637L 53.1513 75.6637ZM -1.11712 2.23652L 52.0342 28.7852L 54.2685 24.3121L 1.11712 -2.23652L -1.11712 2.23652ZM 50.6513 26.5487L 50.6513 75.6637L 55.6513 75.6637L 55.6513 26.5487L 50.6513 26.5487ZM 55.197 74.2266L 2.0457 -1.43704L -2.0457 1.43704L 51.1056 77.1007L 55.197 74.2266Z"/>
<path id="path1_stroke" d="M 0 0L 0.399781 -2.46783L -4.66419 -3.28818L -2.19002 1.20574L 0 0ZM 58.4665 106.195L 56.2764 107.4L 57.1898 109.059L 59.034 108.629L 58.4665 106.195ZM 98.33 96.9026L 98.8975 99.3373L 102.118 98.5867L 100.518 95.6931L 98.33 96.9026ZM 49.165 7.96459L 51.3529 6.7551L 50.7648 5.69117L 49.5648 5.49677L 49.165 7.96459ZM -2.19002 1.20574L 56.2764 107.4L 60.6565 104.989L 2.19002 -1.20574L -2.19002 1.20574ZM 59.034 108.629L 98.8975 99.3373L 97.7624 94.4678L 57.8989 103.76L 59.034 108.629ZM 100.518 95.6931L 51.3529 6.7551L 46.977 9.17409L 96.142 98.1121L 100.518 95.6931ZM 49.5648 5.49677L 0.399781 -2.46783L -0.399781 2.46783L 48.7652 10.4324L 49.5648 5.49677Z"/>
<path id="path2_stroke" d="M 0 0L 2.14957 -1.27646L -2.47834 0.32835L 0 0ZM 46.5074 78.3185L 47.3244 80.6812L 50.2228 79.679L 48.657 77.0421L 46.5074 78.3185ZM 11.959 90.2654L 9.48071 90.5938L 9.88279 93.6286L 12.7761 92.6281L 11.959 90.2654ZM -2.14957 1.27646L 44.3578 79.595L 48.657 77.0421L 2.14957 -1.27646L -2.14957 1.27646ZM 45.6904 75.9558L 11.142 87.9027L 12.7761 92.6281L 47.3244 80.6812L 45.6904 75.9558ZM 14.4374 89.9371L 2.47834 -0.32835L -2.47834 0.32835L 9.48071 90.5938L 14.4374 89.9371Z"/>
<path id="path3_stroke" d="M 58.4665 0L 60.8205 -0.8416L 60.1535 -2.70757L 58.1845 -2.48405L 58.4665 0ZM 0 6.63716L -0.281991 4.15312L -0.451185 9.09611L 0 6.63716ZM 65.1104 18.5841L 64.6592 21.043L 68.9242 21.8256L 67.4645 17.7425L 65.1104 18.5841ZM 58.1845 -2.48405L -0.281991 4.15312L 0.281991 9.12121L 58.7485 2.48405L 58.1845 -2.48405ZM -0.451185 9.09611L 64.6592 21.043L 65.5616 16.1251L 0.451185 4.17821L -0.451185 9.09611ZM 67.4645 17.7425L 60.8205 -0.8416L 56.1124 0.8416L 62.7563 19.4257L 67.4645 17.7425Z"/>
<path id="path4_stroke" d="M 28.901 0L 31.3931 -0.199188L 26.5278 -0.785873L 28.901 0ZM 0 87.2787L -2.37327 86.4928L -3.46134 89.7787L 0 89.7787L 0 87.2787ZM 35.8771 87.2787L 35.8771 89.7787L 38.5849 89.7787L 38.3692 87.0795L 35.8771 87.2787ZM 26.5278 -0.785873L -2.37327 86.4928L 2.37327 88.0646L 31.2743 0.785873L 26.5278 -0.785873ZM 0 89.7787L 35.8771 89.7787L 35.8771 84.7787L 0 84.7787L 0 89.7787ZM 38.3692 87.0795L 31.3931 -0.199188L 26.409 0.199188L 33.3851 87.4779L 38.3692 87.0795Z"/>
<path id="path5_stroke" d="M 0 0L 0.383772 -2.47037L -3.87563 -3.13207L -2.33483 0.893636L 0 0ZM 66.4392 10.3213L 68.8323 11.0446L 69.6641 8.29234L 66.8229 7.85097L 66.4392 10.3213ZM 38.8669 101.549L 36.5321 102.442L 39.1451 109.269L 41.26 102.272L 38.8669 101.549ZM -0.383772 2.47037L 66.0554 12.7917L 66.8229 7.85097L 0.383772 -2.47037L -0.383772 2.47037ZM 64.0461 9.59805L 36.4738 100.825L 41.26 102.272L 68.8323 11.0446L 64.0461 9.59805ZM 41.2017 100.655L 2.33483 -0.893636L -2.33483 0.893636L 36.5321 102.442L 41.2017 100.655Z"/>
<path id="path6_stroke" d="M 39.1991 41.8141L 38.7785 44.2785L 42.8608 44.9752L 41.5757 41.0383L 39.1991 41.8141ZM 0 35.1239L -2.02171 33.6533L -4.39111 36.9106L -0.420603 37.5882L 0 35.1239ZM 25.5494 0L 27.926 -0.775804L 26.407 -5.42895L 23.5277 -1.47061L 25.5494 0ZM 39.6197 39.3498L 0.420603 32.6595L -0.420603 37.5882L 38.7785 44.2785L 39.6197 39.3498ZM 2.02171 36.5945L 27.5711 1.47061L 23.5277 -1.47061L -2.02171 33.6533L 2.02171 36.5945ZM 23.1728 0.775804L 36.8225 42.5899L 41.5757 41.0383L 27.926 -0.775804L 23.1728 0.775804Z"/>
<path id="path7_stroke" d="M 8.63708 0L 9.73506 -2.24598L 6.67211 -3.74336L 6.1649 -0.371919L 8.63708 0ZM 0 57.4115L -2.47218 57.0396L -3.65716 64.9162L 1.81627 59.1294L 0 57.4115ZM 39.8635 15.2655L 41.6797 16.9834L 44.0164 14.513L 40.9614 13.0195L 39.8635 15.2655ZM 6.1649 -0.371919L -2.47218 57.0396L 2.47218 57.7834L 11.1093 0.371919L 6.1649 -0.371919ZM 1.81627 59.1294L 41.6797 16.9834L 38.0472 13.5476L -1.81627 55.6936L 1.81627 59.1294ZM 40.9614 13.0195L 9.73506 -2.24598L 7.5391 2.24598L 38.7655 17.5115L 40.9614 13.0195Z"/>
<path id="path8_stroke" d="M 15.281 0L 17.7741 0.185256L 18.3742 -7.89122L 13.3261 -1.55832L 15.281 0ZM 11.5234 50.5689L 14.0002 50.9084L 14.0107 50.8315L 14.0165 50.7541L 11.5234 50.5689ZM 7.26472 81.6373L 4.78146 81.9261L 9.74156 81.9768L 7.26472 81.6373ZM 0 19.1699L -1.9549 17.6116L -2.60346 18.4252L -2.48326 19.4587L 0 19.1699ZM 12.7878 -0.185256L 9.03022 50.3836L 14.0165 50.7541L 17.7741 0.185256L 12.7878 -0.185256ZM 9.04651 50.2294L 4.78788 81.2978L 9.74156 81.9768L 14.0002 50.9084L 9.04651 50.2294ZM 9.74798 81.3485L 2.48326 18.8811L -2.48326 19.4587L 4.78146 81.9261L 9.74798 81.3485ZM 1.9549 20.7282L 17.2359 1.55832L 13.3261 -1.55832L -1.9549 17.6116L 1.9549 20.7282Z"/>
<path id="path9_stroke" d="M 7.30831 0L 9.62709 -0.934485L 4.81623 -0.198846L 7.30831 0ZM 27.9045 51.1062L 29.9629 52.5249L 30.7256 51.4183L 30.2232 50.1717L 27.9045 51.1062ZM 0 91.5928L -2.49208 91.394L -3.23383 100.69L 2.05845 93.0116L 0 91.5928ZM 4.98953 0.934485L 25.5857 52.0406L 30.2232 50.1717L 9.62709 -0.934485L 4.98953 0.934485ZM 25.846 49.6874L -2.05845 90.1741L 2.05845 93.0116L 29.9629 52.5249L 25.846 49.6874ZM 2.49208 91.7917L 9.80039 0.198846L 4.81623 -0.198846L -2.49208 91.394L 2.49208 91.7917Z"/>
<path id="path10_stroke" d="M 45.843 8.62831L 47.4313 10.5589L 51.5619 7.16078L 46.3054 6.17145L 45.843 8.62831ZM 34.5484 17.9203L 33.3973 20.1396L 34.8622 20.8994L 36.1367 19.851L 34.5484 17.9203ZM 0 0L 0.462416 -2.45686L -1.15112 2.21922L 0 0ZM 44.2547 6.69769L 32.9601 15.9897L 36.1367 19.851L 47.4313 10.5589L 44.2547 6.69769ZM 35.6995 15.7011L 1.15112 -2.21922L -1.15112 2.21922L 33.3973 20.1396L 35.6995 15.7011ZM -0.462416 2.45686L 45.3806 11.0852L 46.3054 6.17145L 0.462416 -2.45686L -0.462416 2.45686Z"/>
<path id="path11_stroke" d="M 0 25.8849L -2.30206 24.91L -5.18097 31.7078L 1.23598 28.058L 0 25.8849ZM 10.9625 0L 10.9625 -2.5L 9.30627 -2.5L 8.6604 -0.97494L 10.9625 0ZM 45.5108 0L 46.7468 2.1731L 54.963 -2.5L 45.5108 -2.5L 45.5108 0ZM 2.30206 26.8599L 13.2645 0.97494L 8.6604 -0.97494L -2.30206 24.91L 2.30206 26.8599ZM 10.9625 2.5L 45.5108 2.5L 45.5108 -2.5L 10.9625 -2.5L 10.9625 2.5ZM 44.2748 -2.1731L -1.23598 23.7118L 1.23598 28.058L 46.7468 2.1731L 44.2748 -2.1731Z"/>
<path id="path12_stroke" d="M 39.8635 0L 42.3635 0L 42.3635 -4.13414L 38.7023 -2.21398L 39.8635 0ZM 0 20.9071L -1.16116 18.6931L -7.41772 21.9744L -0.489811 23.3586L 0 20.9071ZM 39.8635 28.8717L 39.3737 31.3232L 42.3635 31.9206L 42.3635 28.8717L 39.8635 28.8717ZM 38.7023 -2.21398L -1.16116 18.6931L 1.16116 23.121L 41.0247 2.21398L 38.7023 -2.21398ZM -0.489811 23.3586L 39.3737 31.3232L 40.3533 26.4201L 0.489811 18.4555L -0.489811 23.3586ZM 42.3635 28.8717L 42.3635 0L 37.3635 0L 37.3635 28.8717L 42.3635 28.8717Z"/>
<path id="path13_stroke" d="M 35.545 0L 38.0304 0.268975L 38.5813 -4.82131L 34.2286 -2.12536L 35.545 0ZM 31.5586 36.8363L 31.5586 39.3363L 33.8027 39.3363L 34.0441 37.1052L 31.5586 36.8363ZM 0 36.8363L -2.03535 35.3846L -4.85378 39.3363L 0 39.3363L 0 36.8363ZM 18.9352 10.2876L 17.6188 8.16224L 17.1916 8.42683L 16.8998 8.83594L 18.9352 10.2876ZM 33.0595 -0.268975L 29.0731 36.5673L 34.0441 37.1052L 38.0304 0.268975L 33.0595 -0.268975ZM 31.5586 34.3363L 0 34.3363L 0 39.3363L 31.5586 39.3363L 31.5586 34.3363ZM 2.03535 38.2879L 20.9705 11.7393L 16.8998 8.83594L -2.03535 35.3846L 2.03535 38.2879ZM 20.2515 12.413L 36.8613 2.12536L 34.2286 -2.12536L 17.6188 8.16224L 20.2515 12.413Z"/>
<path id="path14_stroke" d="M 8.3049 0L 9.76764 -2.0274L 6.90399 -4.0935L 5.90668 -0.706076L 8.3049 0ZM 0 28.2079L -2.39822 27.5019L -3.53393 31.3594L 0.42793 30.671L 0 28.2079ZM 38.2025 21.5708L 38.6305 24.0339L 44.4805 23.0175L 39.6653 19.5434L 38.2025 21.5708ZM 5.90668 -0.706076L -2.39822 27.5019L 2.39822 28.914L 10.7031 0.706076L 5.90668 -0.706076ZM 0.42793 30.671L 38.6305 24.0339L 37.7746 19.1077L -0.42793 25.7448L 0.42793 30.671ZM 39.6653 19.5434L 9.76764 -2.0274L 6.84215 2.0274L 36.7398 23.5982L 39.6653 19.5434Z"/>
<path id="path15_stroke" d="M 0 6.96902L -0.430526 4.50637L -3.94545 5.12086L -2.16759 8.21464L 0 6.96902ZM 20.5961 42.8097L 18.4286 44.0553L 20.8672 48.2989L 22.8759 43.8357L 20.5961 42.8097ZM 39.8635 0L 42.1432 1.02604L 44.079 -3.27487L 39.433 -2.46265L 39.8635 0ZM -2.16759 8.21464L 18.4286 44.0553L 22.7637 41.5641L 2.16759 5.7234L -2.16759 8.21464ZM 22.8759 43.8357L 42.1432 1.02604L 37.5838 -1.02604L 18.3164 41.7837L 22.8759 43.8357ZM 39.433 -2.46265L -0.430526 4.50637L 0.430526 9.43167L 40.294 2.46265L 39.433 -2.46265Z"/>
<path id="path16_stroke" d="M 18.9352 0L 21.0701 -1.30083L 18.5316 -5.46689L 16.6324 -0.97327L 18.9352 0ZM 32.8874 22.8982L 35.1908 23.8698L 35.6883 22.6905L 35.0223 21.5974L 32.8874 22.8982ZM 10.6303 75.6637L 8.26655 76.4778L 10.3944 82.6554L 12.9337 76.6353L 10.6303 75.6637ZM 0 44.8008L -2.30277 43.8276L -2.67556 44.7096L -2.36372 45.615L 0 44.8008ZM 16.8003 1.30083L 30.7525 24.199L 35.0223 21.5974L 21.0701 -1.30083L 16.8003 1.30083ZM 30.5839 21.9266L 8.3268 74.692L 12.9337 76.6353L 35.1908 23.8698L 30.5839 21.9266ZM 12.994 74.8495L 2.36372 43.9867L -2.36372 45.615L 8.26655 76.4778L 12.994 74.8495ZM 2.30277 45.7741L 21.2379 0.97327L 16.6324 -0.97327L -2.30277 43.8276L 2.30277 45.7741Z"/>
<path id="path17_stroke" d="M 22.5893 0L 25.0263 -0.557601L 23.2613 -8.27195L 20.2742 -0.943625L 22.5893 0ZM 27.9045 23.2301L 30.0176 24.566L 30.5735 23.6866L 30.3415 22.6725L 27.9045 23.2301ZM 0 67.3672L -2.5 67.3672L -2.5 75.9998L 2.11311 68.7032L 0 67.3672ZM 0 55.4203L -2.31508 54.4767L -2.5 54.9304L -2.5 55.4203L 0 55.4203ZM 20.1523 0.557601L 25.4674 23.7877L 30.3415 22.6725L 25.0263 -0.557601L 20.1523 0.557601ZM 25.7913 21.8941L -2.11311 66.0312L 2.11311 68.7032L 30.0176 24.566L 25.7913 21.8941ZM 2.5 67.3672L 2.5 55.4203L -2.5 55.4203L -2.5 67.3672L 2.5 67.3672ZM 2.31508 56.3639L 24.9044 0.943625L 20.2742 -0.943625L -2.31508 54.4767L 2.31508 56.3639Z"/>
<path id="path18_stroke" d="M 25.9113 0L 28.3994 0.243447L 23.8373 -1.39597L 25.9113 0ZM 21.5927 44.1371L 20.9608 46.5559L 23.7955 47.2966L 24.0808 44.3806L 21.5927 44.1371ZM 0 38.4955L -2.07395 37.0996L -4.04198 40.0234L -0.631967 40.9143L 0 38.4955ZM 23.4232 -0.243447L 19.1046 43.8937L 24.0808 44.3806L 28.3994 0.243447L 23.4232 -0.243447ZM 22.2247 41.7183L 0.631967 36.0767L -0.631967 40.9143L 20.9608 46.5559L 22.2247 41.7183ZM 2.07395 39.8915L 27.9852 1.39597L 23.8373 -1.39597L -2.07395 37.0996L 2.07395 39.8915Z"/>
<path id="path19_stroke" d="M 0 0L 0.979787 -2.3L -2.71017 -3.8719L -2.49645 0.133217L 0 0ZM 1.99743 37.4312L -0.499017 37.5644L -0.0146002 46.6422L 4.21094 38.5932L 1.99743 37.4312ZM 17.6915 7.53648L 19.905 8.69853L 21.1649 6.29872L 18.6713 5.23647L 17.6915 7.53648ZM -2.49645 0.133217L -0.499017 37.5644L 4.49388 37.298L 2.49645 -0.133217L -2.49645 0.133217ZM 4.21094 38.5932L 19.905 8.69853L 15.478 6.37443L -0.216082 36.2691L 4.21094 38.5932ZM 18.6713 5.23647L 0.979787 -2.3L -0.979787 2.3L 16.7117 9.83648L 18.6713 5.23647Z"/>
<path id="path20_stroke" d="M 12.9556 0L 15.4556 0L 10.6704 -1.0138L 12.9556 0ZM 12.9556 11.2832L 15.3844 11.8758L 15.4556 11.5838L 15.4556 11.2832L 12.9556 11.2832ZM 0 64.3805L -2.5 64.3805L 2.42875 64.9731L 0 64.3805ZM 0 29.2035L -2.28522 28.1897L -2.5 28.6739L -2.5 29.2035L 0 29.2035ZM 10.4556 0L 10.4556 11.2832L 15.4556 11.2832L 15.4556 0L 10.4556 0ZM 10.5269 10.6906L -2.42875 63.7879L 2.42875 64.9731L 15.3844 11.8758L 10.5269 10.6906ZM 2.5 64.3805L 2.5 29.2035L -2.5 29.2035L -2.5 64.3805L 2.5 64.3805ZM 2.28522 30.2173L 15.2409 1.0138L 10.6704 -1.0138L -2.28522 28.1897L 2.28522 30.2173Z"/>
<path id="path21_stroke" d="M 0 11.2832L -0.41254 10.3722L 0 12.2832L 0 11.2832ZM 24.9147 0L 25.8193 0.426152L 26.9772 -2.03183L 24.5021 -0.91094L 24.9147 0ZM 19.5996 11.2832L 19.5996 12.2832L 20.2339 12.2832L 20.5042 11.7093L 19.5996 11.2832ZM 0.41254 12.1941L 25.3272 0.91094L 24.5021 -0.91094L -0.41254 10.3722L 0.41254 12.1941ZM 24.01 -0.426152L 18.6949 10.857L 20.5042 11.7093L 25.8193 0.426152L 24.01 -0.426152ZM 19.5996 10.2832L 0 10.2832L 0 12.2832L 19.5996 12.2832L 19.5996 10.2832Z"/>
<path id="path22_stroke" d="M 0 0L 0.320514 -0.947244L -0.673895 0.738827L 0 0ZM 7.6405 6.96902L 6.96661 7.70785L 7.25295 7.96902L 7.6405 7.96902L 7.6405 6.96902ZM 20.5961 6.96902L 20.5961 7.96902L 20.9167 6.02178L 20.5961 6.96902ZM -0.673895 0.738827L 6.96661 7.70785L 8.3144 6.23019L 0.673895 -0.738827L -0.673895 0.738827ZM 7.6405 7.96902L 20.5961 7.96902L 20.5961 5.96902L 7.6405 5.96902L 7.6405 7.96902ZM 20.9167 6.02178L 0.320514 -0.947244L -0.320514 0.947244L 20.2756 7.91626L 20.9167 6.02178Z"/>
<path id="path23_stroke" d="M 17.9386 0L 18.2366 -0.954566L 17.3685 -1.22556L 17.0165 -0.387061L 17.9386 0ZM 39.1991 6.63716L 39.3404 7.62713L 39.4971 5.6826L 39.1991 6.63716ZM 13.62 10.2876L 12.698 9.90054L 12.0153 11.5267L 13.7613 11.2776L 13.62 10.2876ZM 0 14.2699L -0.0849707 13.2735L -0.301965 15.2232L 0 14.2699ZM 27.2401 11.9469L 27.6781 12.8458L 27.1551 10.9505L 27.2401 11.9469ZM 13.62 18.5841L 13.3181 19.5374L 13.6989 19.658L 14.0581 19.483L 13.62 18.5841ZM 17.6406 0.954566L 38.9011 7.59173L 39.4971 5.6826L 18.2366 -0.954566L 17.6406 0.954566ZM 39.0578 5.64719L 13.4787 9.29763L 13.7613 11.2776L 39.3404 7.62713L 39.0578 5.64719ZM 14.5421 10.6747L 18.8606 0.387061L 17.0165 -0.387061L 12.698 9.90054L 14.5421 10.6747ZM 0.0849707 15.2663L 27.325 12.9433L 27.1551 10.9505L -0.0849707 13.2735L 0.0849707 15.2663ZM 26.802 11.0479L 13.182 17.6851L 14.0581 19.483L 27.6781 12.8458L 26.802 11.0479ZM 13.922 17.6307L 0.301965 13.3166L -0.301965 15.2232L 13.3181 19.5374L 13.922 17.6307Z"/>
<path id="path24_stroke" d="M 0 2.65487L -0.191323 1.67334L -3.4923 2.31678L -0.376049 3.58147L 0 2.65487ZM 13.62 0L 13.8917 -0.962382L 13.6625 -1.0271L 13.4287 -0.981527L 13.62 0ZM 28.901 4.31416L 29.0448 5.30376L 29.1727 3.35177L 28.901 4.31416ZM 10.6303 6.96902L 10.2542 7.89562L 10.5056 7.99764L 10.7741 7.95863L 10.6303 6.96902ZM 0.191323 3.63639L 13.8114 0.981527L 13.4287 -0.981527L -0.191323 1.67334L 0.191323 3.63639ZM 13.3483 0.962382L 28.6293 5.27654L 29.1727 3.35177L 13.8917 -0.962382L 13.3483 0.962382ZM 28.7572 3.32455L 10.4865 5.97941L 10.7741 7.95863L 29.0448 5.30376L 28.7572 3.32455ZM 11.0063 6.04242L 0.376049 1.72827L -0.376049 3.58147L 10.2542 7.89562L 11.0063 6.04242Z"/>
<path id="path25_stroke" d="M 13.62 0L 13.9561 -0.94185L 13.571 -1.07925L 13.1999 -0.907474L 13.62 0ZM 0 6.30531L -0.420109 5.39783L -3.28638 6.72475L -0.178709 7.28921L 0 6.30531ZM 10.9625 8.29645L 10.7838 9.28036L 11.0742 9.33311L 11.3467 9.21967L 10.9625 8.29645ZM 22.9215 3.31858L 23.3058 4.2418L 25.6962 3.2468L 23.2575 2.37673L 22.9215 3.31858ZM 13.1999 -0.907474L -0.420109 5.39783L 0.420109 7.21278L 14.0401 0.907474L 13.1999 -0.907474ZM -0.178709 7.28921L 10.7838 9.28036L 11.1412 7.31255L 0.178709 5.3214L -0.178709 7.28921ZM 11.3467 9.21967L 23.3058 4.2418L 22.5372 2.39537L 10.5782 7.37324L 11.3467 9.21967ZM 23.2575 2.37673L 13.9561 -0.94185L 13.284 0.94185L 22.5855 4.26043L 23.2575 2.37673Z"/>
<path id="path26_stroke" d="M 24.5825 0L 25.2892 0.707466L 27.6075 -1.60847L 24.3912 -0.981527L 24.5825 0ZM 16.6098 7.96459L 16.6098 8.96459L 17.0237 8.96459L 17.3165 8.67206L 16.6098 7.96459ZM 0 7.96459L -0.435914 7.06461L 0 8.96459L 0 7.96459ZM 10.9625 2.65487L 10.7711 1.67334L 10.6435 1.69821L 10.5265 1.75488L 10.9625 2.65487ZM 23.8757 -0.707466L 15.903 7.25713L 17.3165 8.67206L 25.2892 0.707466L 23.8757 -0.707466ZM 16.6098 6.96459L 0 6.96459L 0 8.96459L 16.6098 8.96459L 16.6098 6.96459ZM 0.435914 8.86458L 11.3984 3.55485L 10.5265 1.75488L -0.435914 7.06461L 0.435914 8.86458ZM 11.1538 3.63639L 24.7738 0.981527L 24.3912 -0.981527L 10.7711 1.67334L 11.1538 3.63639Z"/>
<path id="path27_stroke" d="M 8.96929 0L 9.87949 -0.414152L 9.24759 -1.80292L 8.22633 -0.669341L 8.96929 0ZM 0 9.95574L -0.742956 9.2864L -1.80266 10.4627L -0.28521 10.9142L 0 9.95574ZM 15.6132 14.6018L 15.328 15.5602L 17.433 16.1866L 16.5234 14.1876L 15.6132 14.6018ZM 8.22633 -0.669341L -0.742956 9.2864L 0.742956 10.6251L 9.71224 0.669341L 8.22633 -0.669341ZM -0.28521 10.9142L 15.328 15.5602L 15.8984 13.6433L 0.28521 8.99728L -0.28521 10.9142ZM 16.5234 14.1876L 9.87949 -0.414152L 8.05908 0.414152L 14.703 15.0159L 16.5234 14.1876Z"/>
<path id="path28_stroke" d="M 0 0L 0.619256 -0.785189L -2.19649 -3.00589L -0.936212 0.351437L 0 0ZM 18.9352 14.9336L 18.8171 15.9266L 22.3404 16.3456L 19.5544 14.1484L 18.9352 14.9336ZM 4.98294 13.2743L 4.04673 13.6258L 4.26058 14.1955L 4.86484 14.2673L 4.98294 13.2743ZM -0.619256 0.785189L 18.3159 15.7188L 19.5544 14.1484L 0.619256 -0.785189L -0.619256 0.785189ZM 19.0533 13.9406L 5.10103 12.2813L 4.86484 14.2673L 18.8171 15.9266L 19.0533 13.9406ZM 5.91915 12.9229L 0.936212 -0.351437L -0.936212 0.351437L 4.04673 13.6258L 5.91915 12.9229Z"/>
<path id="path29_stroke" d="M 0 11.2832L -0.429437 10.3801L 0 12.2832L 0 11.2832ZM 23.7283 0L 24.6407 0.409329L 25.753 -2.0701L 23.2988 -0.903097L 23.7283 0ZM 18.6662 11.2832L 18.6662 12.2832L 19.3136 12.2832L 19.5786 11.6925L 18.6662 11.2832ZM 0.429437 12.1863L 24.1577 0.903097L 23.2988 -0.903097L -0.429437 10.3801L 0.429437 12.1863ZM 22.8159 -0.409329L 17.7539 10.8738L 19.5786 11.6925L 24.6407 0.409329L 22.8159 -0.409329ZM 18.6662 10.2832L 0 10.2832L 0 12.2832L 18.6662 12.2832L 18.6662 10.2832Z"/>
<path id="path30_stroke" d="M 0 0L 0.334782 -0.942296L -0.691675 0.722209L 0 0ZM 7.27667 6.96902L 6.585 7.69123L 6.87505 7.96902L 7.27667 7.96902L 7.27667 6.96902ZM 19.6154 6.96902L 19.6154 7.96902L 19.9502 6.02673L 19.6154 6.96902ZM -0.691675 0.722209L 6.585 7.69123L 7.96835 6.24681L 0.691675 -0.722209L -0.691675 0.722209ZM 7.27667 7.96902L 19.6154 7.96902L 19.6154 5.96902L 7.27667 5.96902L 7.27667 7.96902ZM 19.9502 6.02673L 0.334782 -0.942296L -0.334782 0.942296L 19.2806 7.91132L 19.9502 6.02673Z"/>
<path id="path31_stroke" d="M 17.0844 0L 17.3958 -0.950251L 16.5042 -1.24254L 16.1558 -0.371224L 17.0844 0ZM 37.3325 6.63716L 37.4807 7.62612L 37.644 5.68691L 37.3325 6.63716ZM 12.9715 10.2876L 12.0429 9.91638L 11.3959 11.5349L 13.1196 11.2766L 12.9715 10.2876ZM 0 14.2699L -0.0891862 13.2739L -0.315592 15.2188L 0 14.2699ZM 25.9429 11.9469L 26.3984 12.8371L 25.8537 10.9509L 25.9429 11.9469ZM 12.9715 18.5841L 12.6559 19.533L 13.0537 19.6653L 13.427 19.4743L 12.9715 18.5841ZM 16.7729 0.950251L 37.021 7.58741L 37.644 5.68691L 17.3958 -0.950251L 16.7729 0.950251ZM 37.1843 5.6482L 12.8233 9.29864L 13.1196 11.2766L 37.4807 7.62612L 37.1843 5.6482ZM 13.9 10.6588L 18.0129 0.371224L 16.1558 -0.371224L 12.0429 9.91638L 13.9 10.6588ZM 0.0891862 15.2659L 26.0321 12.9429L 25.8537 10.9509L -0.0891862 13.2739L 0.0891862 15.2659ZM 25.4874 11.0567L 12.5159 17.6938L 13.427 19.4743L 26.3984 12.8371L 25.4874 11.0567ZM 13.287 17.6352L 0.315592 13.321L -0.315592 15.2188L 12.6559 19.533L 13.287 17.6352Z"/>
<path id="path32_stroke" d="M 0 2.65487L -0.200513 1.67517L -3.34138 2.31801L -0.39202 3.57482L 0 2.65487ZM 12.9715 0L 13.2557 -0.958761L 13.0159 -1.02983L 12.7709 -0.979691L 12.9715 0ZM 27.5248 4.31416L 27.6756 5.30272L 27.809 3.35539L 27.5248 4.31416ZM 10.1241 6.96902L 9.73204 7.88898L 9.99371 8.00048L 10.2749 7.95758L 10.1241 6.96902ZM 0.200513 3.63456L 13.172 0.979691L 12.7709 -0.979691L -0.200513 1.67517L 0.200513 3.63456ZM 12.6872 0.958761L 27.2406 5.27292L 27.809 3.35539L 13.2557 -0.958761L 12.6872 0.958761ZM 27.374 3.3256L 9.97324 5.98046L 10.2749 7.95758L 27.6756 5.30272L 27.374 3.3256ZM 10.5161 6.04906L 0.39202 1.73491L -0.39202 3.57482L 9.73204 7.88898L 10.5161 6.04906Z"/>
<path id="path33_stroke" d="M 12.9715 0L 13.3223 -0.936446L 12.9203 -1.08702L 12.5343 -0.899375L 12.9715 0ZM 0 6.30531L -0.437178 5.40593L -3.147 6.72315L -0.187339 7.2876L 0 6.30531ZM 10.4404 8.29645L 10.2531 9.27875L 10.5572 9.33675L 10.8409 9.21276L 10.4404 8.29645ZM 21.83 3.31858L 22.2305 4.23489L 24.4902 3.24727L 22.1808 2.38214L 21.83 3.31858ZM 12.5343 -0.899375L -0.437178 5.40593L 0.437178 7.20468L 13.4086 0.899375L 12.5343 -0.899375ZM -0.187339 7.2876L 10.2531 9.27875L 10.6278 7.31416L 0.187339 5.32301L -0.187339 7.2876ZM 10.8409 9.21276L 22.2305 4.23489L 21.4295 2.40228L 10.04 7.38015L 10.8409 9.21276ZM 22.1808 2.38214L 13.3223 -0.936446L 12.6206 0.936446L 21.4792 4.25503L 22.1808 2.38214Z"/>
<path id="path34_stroke" d="M 23.4119 0L 24.1357 0.690023L 26.3375 -1.61951L 23.2114 -0.979691L 23.4119 0ZM 15.8188 7.96459L 15.8188 8.96459L 16.2471 8.96459L 16.5426 8.65462L 15.8188 7.96459ZM 0 7.96459L -0.453317 7.07325L 0 8.96459L 0 7.96459ZM 10.4404 2.65487L 10.2399 1.67517L 10.1076 1.70227L 9.98712 1.76352L 10.4404 2.65487ZM 22.6881 -0.690023L 15.0951 7.27457L 16.5426 8.65462L 24.1357 0.690023L 22.6881 -0.690023ZM 15.8188 6.96459L 0 6.96459L 0 8.96459L 15.8188 8.96459L 15.8188 6.96459ZM 0.453317 8.85594L 10.8938 3.54621L 9.98712 1.76352L -0.453317 7.07325L 0.453317 8.85594ZM 10.641 3.63456L 23.6124 0.979691L 23.2114 -0.979691L 10.2399 1.67517L 10.641 3.63456Z"/>
<path id="path35_stroke" d="M 8.54218 0L 9.45973 -0.397613L 8.82415 -1.86432L 7.78325 -0.651173L 8.54218 0ZM 0 9.95574L -0.758929 9.30457L -1.74796 10.4573L -0.29823 10.9102L 0 9.95574ZM 14.8697 14.6018L 14.5715 15.5563L 16.6553 16.2073L 15.7873 14.2041L 14.8697 14.6018ZM 7.78325 -0.651173L -0.758929 9.30457L 0.758929 10.6069L 9.30111 0.651173L 7.78325 -0.651173ZM -0.29823 10.9102L 14.5715 15.5563L 15.1679 13.6473L 0.29823 9.00125L -0.29823 10.9102ZM 15.7873 14.2041L 9.45973 -0.397613L 7.62463 0.397613L 13.9522 14.9994L 15.7873 14.2041Z"/>
<path id="path36_stroke" d="M 0 0L 0.637805 -0.770198L -2.168 -3.0937L -0.941633 0.33664L 0 0ZM 18.0335 14.9336L 17.9096 15.9259L 21.3128 16.3509L 18.6713 14.1634L 18.0335 14.9336ZM 4.74565 13.2743L 3.80402 13.611L 4.01116 14.1904L 4.62174 14.2666L 4.74565 13.2743ZM -0.637805 0.770198L 17.3957 15.7038L 18.6713 14.1634L 0.637805 -0.770198L -0.637805 0.770198ZM 18.1574 13.9413L 4.86957 12.282L 4.62174 14.2666L 17.9096 15.9259L 18.1574 13.9413ZM 5.68729 12.9377L 0.941633 -0.33664L -0.941633 0.33664L 3.80402 13.611L 5.68729 12.9377Z"/>
<path id="path37_stroke" d="M 9.30148 0L 11.7998 0.0914951L 6.89974 -0.693992L 9.30148 0ZM 6.31172 81.6371L 3.83184 81.9537L 8.81005 81.7286L 6.31172 81.6371ZM 0 32.1902L -2.40174 31.4962L -2.54541 31.9934L -2.47988 32.5068L 0 32.1902ZM 6.80316 -0.0914951L 3.81339 81.5456L 8.81005 81.7286L 11.7998 0.0914951L 6.80316 -0.0914951ZM 8.7916 81.3206L 2.47988 31.8737L -2.47988 32.5068L 3.83184 81.9537L 8.7916 81.3206ZM 2.40174 32.8842L 11.7032 0.693992L 6.89974 -0.693992L -2.40174 31.4962L 2.40174 32.8842Z"/>
<path id="path38_stroke" d="M 3.32196 0L 4.29652 -0.224114L 2.32607 -0.0906271L 3.32196 0ZM 0 36.5044L -0.995885 36.4138L -1.31511 39.9217L 0.799707 37.1048L 0 36.5044ZM 8.96929 24.5575L 9.76899 25.1579L 10.048 24.7863L 9.94385 24.3334L 8.96929 24.5575ZM 2.32607 -0.0906271L -0.995885 36.4138L 0.995885 36.595L 4.31784 0.0906271L 2.32607 -0.0906271ZM 0.799707 37.1048L 9.76899 25.1579L 8.16958 23.9571L -0.799707 35.904L 0.799707 37.1048ZM 9.94385 24.3334L 4.29652 -0.224114L 2.3474 0.224114L 7.99472 24.7816L 9.94385 24.3334Z"/>
<path id="path39_stroke" d="M 8.96929 0L 9.94932 -0.198857L 9.5224 -2.30283L 8.18649 -0.62227L 8.96929 0ZM 13.9522 24.5575L 14.2502 25.5121L 15.1117 25.2431L 14.9323 24.3586L 13.9522 24.5575ZM 3.32196 27.8761L 2.34142 28.0724L 2.5595 29.1617L 3.61996 28.8306L 3.32196 27.8761ZM 0 11.2832L -0.782803 10.6609L -1.07167 11.0243L -0.980542 11.4795L 0 11.2832ZM 7.98926 0.198857L 12.9722 24.7564L 14.9323 24.3586L 9.94932 -0.198857L 7.98926 0.198857ZM 13.6542 23.6029L 3.02396 26.9215L 3.61996 28.8306L 14.2502 25.5121L 13.6542 23.6029ZM 4.3025 27.6798L 0.980542 11.0869L -0.980542 11.4795L 2.34142 28.0724L 4.3025 27.6798ZM 0.782803 11.9054L 9.75209 0.62227L 8.18649 -0.62227L -0.782803 10.6609L 0.782803 11.9054Z"/>
<path id="path40_stroke" d="M 0 3.65044L -0.36533 2.71956L -1.62324 3.21324L -0.783438 4.27191L 0 3.65044ZM 9.30148 0L 10.2783 -0.213904L 10.0275 -1.3592L 8.93615 -0.930878L 9.30148 0ZM 13.9522 21.2389L 13.1688 21.8604L 14.9291 21.025L 13.9522 21.2389ZM 0.36533 4.58132L 9.66681 0.930878L 8.93615 -0.930878L -0.36533 2.71956L 0.36533 4.58132ZM 8.32463 0.213904L 12.9754 21.4528L 14.9291 21.025L 10.2783 -0.213904L 8.32463 0.213904ZM 14.7357 20.6175L 0.783438 3.02897L -0.783438 4.27191L 13.1688 21.8604L 14.7357 20.6175Z"/>
<path id="path41_stroke" d="M 0 0L 0.697501 -0.716584L -1.78419 -3.13218L -0.97212 0.234484L 0 0ZM 6.64392 27.5442L 5.6718 27.7787L 6.38346 30.7291L 7.56502 27.9335L 6.64392 27.5442ZM 12.9556 12.6106L 13.8767 12.9999L 14.1427 12.3706L 13.6531 11.894L 12.9556 12.6106ZM -0.97212 0.234484L 5.6718 27.7787L 7.61604 27.3097L 0.97212 -0.234484L -0.97212 0.234484ZM 7.56502 27.9335L 13.8767 12.9999L 12.0345 12.2213L 5.72281 27.1549L 7.56502 27.9335ZM 13.6531 11.894L 0.697501 -0.716584L -0.697501 0.716584L 12.2581 13.3272L 13.6531 11.894Z"/>
<path id="path42_stroke" d="M 5.97952 0L 6.91698 -0.348118L 6.06864 -2.63262L 5.06776 -0.410712L 5.97952 0ZM 13.62 20.5752L 13.1476 21.4566L 15.4779 22.7057L 14.5575 20.2271L 13.62 20.5752ZM 0 13.2743L -0.911765 12.8636L -1.29514 13.7147L -0.472444 14.1557L 0 13.2743ZM 5.04207 0.348118L 12.6826 20.9233L 14.5575 20.2271L 6.91698 -0.348118L 5.04207 0.348118ZM 14.0925 19.6938L 0.472444 12.393L -0.472444 14.1557L 13.1476 21.4566L 14.0925 19.6938ZM 0.911765 13.685L 6.89129 0.410712L 5.06776 -0.410712L -0.911765 12.8636L 0.911765 13.685Z"/>
<path id="path43_stroke" d="M 0 0L 0.391218 -0.920298L -1.8679 -1.88065L -0.922938 0.384949L 0 0ZM 8.3049 19.9115L 7.38196 20.2964L 7.89272 21.521L 8.9292 20.6927L 8.3049 19.9115ZM 18.2708 11.9469L 18.8951 12.7281L 19.5272 12.2229L 19.165 11.4993L 18.2708 11.9469ZM 15.6132 6.63716L 16.5075 6.18959L 16.3429 5.86073L 16.0044 5.71686L 15.6132 6.63716ZM -0.922938 0.384949L 7.38196 20.2964L 9.22783 19.5265L 0.922938 -0.384949L -0.922938 0.384949ZM 8.9292 20.6927L 18.8951 12.7281L 17.6465 11.1657L 7.68059 19.1303L 8.9292 20.6927ZM 19.165 11.4993L 16.5075 6.18959L 14.719 7.08474L 17.3765 12.3945L 19.165 11.4993ZM 16.0044 5.71686L 0.391218 -0.920298L -0.391218 0.920298L 15.222 7.55746L 16.0044 5.71686Z"/>
<path id="path44_stroke" d="M 0 5.97345L -0.615919 5.18564L -1.23928 5.67299L -0.908329 6.3917L 0 5.97345ZM 7.6405 22.5664L 6.73218 22.9846L 7.82349 25.3546L 8.59571 22.8623L 7.6405 22.5664ZM 11.9591 8.62831L 12.9143 8.92427L 13.0332 8.54025L 12.8533 8.18073L 11.9591 8.62831ZM 7.6405 0L 8.53475 -0.447578L 7.98762 -1.54072L 7.02459 -0.787809L 7.6405 0ZM -0.908329 6.3917L 6.73218 22.9846L 8.54883 22.1481L 0.908329 5.55519L -0.908329 6.3917ZM 8.59571 22.8623L 12.9143 8.92427L 11.0038 8.33235L 6.6853 22.2704L 8.59571 22.8623ZM 12.8533 8.18073L 8.53475 -0.447578L 6.74626 0.447578L 11.0648 9.07589L 12.8533 8.18073ZM 7.02459 -0.787809L -0.615919 5.18564L 0.615919 6.76126L 8.25642 0.787809L 7.02459 -0.787809Z"/>
<path id="path45_stroke" d="M 0 12.9425L -0.968603 12.6939L -1.10309 13.2178L -0.738144 13.6171L 0 12.9425ZM 6.97611 20.5752L 6.23797 21.2498L 8.56346 23.7942L 7.96071 20.4003L 6.97611 20.5752ZM 3.32196 0L 4.30655 -0.174864L 2.35336 -0.248612L 3.32196 0ZM -0.738144 13.6171L 6.23797 21.2498L 7.71426 19.9006L 0.738144 12.2678L -0.738144 13.6171ZM 7.96071 20.4003L 4.30655 -0.174864L 2.33737 0.174864L 5.99152 20.7501L 7.96071 20.4003ZM 2.35336 -0.248612L -0.968603 12.6939L 0.968603 13.1911L 4.29056 0.248612L 2.35336 -0.248612Z"/>
<path id="path46_stroke" d="M 0 0L 0.811903 -0.583792L -0.990322 0.138786L 0 0ZM 16.942 23.5619L 16.942 24.5619L 18.8927 24.5619L 17.7539 22.9781L 16.942 23.5619ZM 7.9727 23.5619L 7.19577 24.1915L 7.49593 24.5619L 7.9727 24.5619L 7.9727 23.5619ZM 2.32537 16.5929L 1.33505 16.7317L 1.37359 17.0067L 1.54844 17.2225L 2.32537 16.5929ZM -0.811903 0.583792L 16.1301 24.1457L 17.7539 22.9781L 0.811903 -0.583792L -0.811903 0.583792ZM 16.942 22.5619L 7.9727 22.5619L 7.9727 24.5619L 16.942 24.5619L 16.942 22.5619ZM 8.74963 22.9323L 3.1023 15.9633L 1.54844 17.2225L 7.19577 24.1915L 8.74963 22.9323ZM 3.31569 16.4541L 0.990322 -0.138786L -0.990322 0.138786L 1.33505 16.7317L 3.31569 16.4541Z"/>
<path id="path47_stroke" d="M 3.30455 0L 4.27937 -0.222998L 2.30862 -0.0901561L 3.30455 0ZM 0 36.5044L -0.995928 36.4142L -1.31474 39.936L 0.801218 37.1028L 0 36.5044ZM 8.92229 24.5575L 9.72351 25.1559L 10.0002 24.7853L 9.89711 24.3345L 8.92229 24.5575ZM 2.30862 -0.0901561L -0.995928 36.4142L 0.995928 36.5946L 4.30048 0.0901561L 2.30862 -0.0901561ZM 0.801218 37.1028L 9.72351 25.1559L 8.12107 23.9591L -0.801218 35.906L 0.801218 37.1028ZM 9.89711 24.3345L 4.27937 -0.222998L 2.32973 0.222998L 7.94747 24.7805L 9.89711 24.3345Z"/>
<path id="path48_stroke" d="M 8.92229 0L 9.90252 -0.197856L 9.47576 -2.31214L 8.1379 -0.620266L 8.92229 0ZM 13.8791 24.5575L 14.1785 25.5116L 15.0375 25.2421L 14.8593 24.3596L 13.8791 24.5575ZM 3.30455 27.8761L 2.32381 28.0714L 2.54135 29.1637L 3.60398 28.8302L 3.30455 27.8761ZM 0 11.2832L -0.784392 10.6629L -1.07099 11.0253L -0.98074 11.4785L 0 11.2832ZM 7.94206 0.197856L 12.8989 24.7554L 14.8593 24.3596L 9.90252 -0.197856L 7.94206 0.197856ZM 13.5797 23.6034L 3.00512 26.922L 3.60398 28.8302L 14.1785 25.5116L 13.5797 23.6034ZM 4.28529 27.6808L 0.98074 11.0879L -0.98074 11.4785L 2.32381 28.0714L 4.28529 27.6808ZM 0.784392 11.9034L 9.70668 0.620266L 8.1379 -0.620266L -0.784392 10.6629L 0.784392 11.9034Z"/>
<path id="path49_stroke" d="M 0 3.65044L -0.366996 2.72022L -1.61832 3.2139L -0.785024 4.2699L 0 3.65044ZM 9.25274 0L 10.2298 -0.212834L 9.97957 -1.36176L 8.88575 -0.930223L 9.25274 0ZM 13.8791 21.2389L 13.0941 21.8584L 14.8562 21.0261L 13.8791 21.2389ZM 0.366996 4.58066L 9.61974 0.930223L 8.88575 -0.930223L -0.366996 2.72022L 0.366996 4.58066ZM 8.27566 0.212834L 12.902 21.4518L 14.8562 21.0261L 10.2298 -0.212834L 8.27566 0.212834ZM 14.6641 20.6195L 0.785024 3.03097L -0.785024 4.2699L 13.0941 21.8584L 14.6641 20.6195Z"/>
<path id="path50_stroke" d="M 0 0L 0.69938 -0.71475L -1.78262 -3.14338L -0.972399 0.233323L 0 0ZM 6.6091 27.5442L 5.6367 27.7775L 6.34853 30.7441L 7.53094 27.9318L 6.6091 27.5442ZM 12.8878 12.6106L 13.8096 12.9982L 14.0731 12.3714L 13.5871 11.8959L 12.8878 12.6106ZM -0.972399 0.233323L 5.6367 27.7775L 7.5815 27.3109L 0.972399 -0.233323L -0.972399 0.233323ZM 7.53094 27.9318L 13.8096 12.9982L 11.9659 12.223L 5.68726 27.1566L 7.53094 27.9318ZM 13.5871 11.8959L 0.69938 -0.71475L -0.69938 0.71475L 12.1884 13.3254L 13.5871 11.8959Z"/>
<path id="path51_stroke" d="M 5.94819 0L 6.88624 -0.346513L 6.03737 -2.64448L 5.03562 -0.40892L 5.94819 0ZM 13.5487 20.5752L 13.0743 21.4555L 15.4036 22.7107L 14.4867 20.2287L 13.5487 20.5752ZM 0 13.2743L -0.91257 12.8654L -1.29268 13.7137L -0.474374 14.1546L 0 13.2743ZM 5.01015 0.346513L 12.6106 20.9217L 14.4867 20.2287L 6.88624 -0.346513L 5.01015 0.346513ZM 14.023 19.6949L 0.474374 12.394L -0.474374 14.1546L 13.0743 21.4555L 14.023 19.6949ZM 0.91257 13.6832L 6.86076 0.40892L 5.03562 -0.40892L -0.91257 12.8654L 0.91257 13.6832Z"/>
<path id="path52_stroke" d="M 0 0L 0.392961 -0.919555L -1.86443 -1.88423L -0.923653 0.383229L 0 0ZM 8.26138 19.9115L 7.33773 20.2947L 7.84855 21.5259L 8.88769 20.6911L 8.26138 19.9115ZM 18.175 11.9469L 18.8013 12.7265L 19.4291 12.2221L 19.0702 11.5012L 18.175 11.9469ZM 15.5314 6.63716L 16.4266 6.19146L 16.2626 5.86216L 15.9244 5.71761L 15.5314 6.63716ZM -0.923653 0.383229L 7.33773 20.2947L 9.18503 19.5283L 0.923653 -0.383229L -0.923653 0.383229ZM 8.88769 20.6911L 18.8013 12.7265L 17.5487 11.1673L 7.63507 19.1319L 8.88769 20.6911ZM 19.0702 11.5012L 16.4266 6.19146L 14.6362 7.08286L 17.2799 12.3926L 19.0702 11.5012ZM 15.9244 5.71761L 0.392961 -0.919555L -0.392961 0.919555L 15.1384 7.55672L 15.9244 5.71761Z"/>
<path id="path53_stroke" d="M 0 5.97345L -0.617927 5.18721L -1.23714 5.67387L -0.909161 6.38989L 0 5.97345ZM 7.60047 22.5664L 6.69131 22.9828L 7.78357 25.3674L 8.55611 22.8609L 7.60047 22.5664ZM 11.8964 8.62831L 12.852 8.92285L 12.9698 8.54064L 12.7916 8.18261L 11.8964 8.62831ZM 7.60047 0L 8.49565 -0.445699L 7.94823 -1.5452L 6.98254 -0.786235L 7.60047 0ZM -0.909161 6.38989L 6.69131 22.9828L 8.50963 22.1499L 0.909161 5.557L -0.909161 6.38989ZM 8.55611 22.8609L 12.852 8.92285L 10.9407 8.33377L 6.64483 22.2718L 8.55611 22.8609ZM 12.7916 8.18261L 8.49565 -0.445699L 6.70529 0.445699L 11.0012 9.07401L 12.7916 8.18261ZM 6.98254 -0.786235L -0.617927 5.18721L 0.617927 6.75968L 8.2184 0.786235L 6.98254 -0.786235Z"/>
<path id="path54_stroke" d="M 0 12.9425L -0.968916 12.6951L -1.10212 13.2168L -0.739906 13.6152L 0 12.9425ZM 6.93956 20.5752L 6.19965 21.2479L 8.52593 23.8066L 7.92431 20.4012L 6.93956 20.5752ZM 3.30455 0L 4.2893 -0.173975L 2.33564 -0.24739L 3.30455 0ZM -0.739906 13.6152L 6.19965 21.2479L 7.67946 19.9025L 0.739906 12.2698L -0.739906 13.6152ZM 7.92431 20.4012L 4.2893 -0.173975L 2.3198 0.173975L 5.95481 20.7492L 7.92431 20.4012ZM 2.33564 -0.24739L -0.968916 12.6951L 0.968916 13.1899L 4.27347 0.24739L 2.33564 -0.24739Z"/>
<path id="path55_stroke" d="M 0 0L 0.813353 -0.58177L -0.990422 0.138073L 0 0ZM 16.8532 23.5619L 16.8532 24.5619L 18.798 24.5619L 17.6666 22.9802L 16.8532 23.5619ZM 7.93092 23.5619L 7.15238 24.1895L 7.45258 24.5619L 7.93092 24.5619L 7.93092 23.5619ZM 2.31319 16.5929L 1.32276 16.731L 1.36097 17.0051L 1.53464 17.2205L 2.31319 16.5929ZM -0.813353 0.58177L 16.0399 24.1437L 17.6666 22.9802L 0.813353 -0.58177L -0.813353 0.58177ZM 16.8532 22.5619L 7.93092 22.5619L 7.93092 24.5619L 16.8532 24.5619L 16.8532 22.5619ZM 8.70947 22.9343L 3.09173 15.9653L 1.53464 17.2205L 7.15238 24.1895L 8.70947 22.9343ZM 3.30361 16.4548L 0.990422 -0.138073L -0.990422 0.138073L 1.32276 16.731L 3.30361 16.4548Z"/>
<path id="path56_stroke" d="M 1.66098 0L 2.41806 -0.653321L 0.915603 -2.3944L 0.666846 -0.108168L 1.66098 0ZM 0 15.2655L -0.994133 15.1573L -1.20516 17.0968L 0.492633 16.1357L 0 15.2655ZM 9.96587 9.62389L 10.4585 10.4941L 11.5194 9.89354L 10.723 8.97056L 9.96587 9.62389ZM 0.666846 -0.108168L -0.994133 15.1573L 0.994133 15.3736L 2.65511 0.108168L 0.666846 -0.108168ZM 0.492633 16.1357L 10.4585 10.4941L 9.47324 8.75365L -0.492633 14.3952L 0.492633 16.1357ZM 10.723 8.97056L 2.41806 -0.653321L 0.903898 0.653321L 9.20879 10.2772L 10.723 8.97056Z"/>
<path id="path57_stroke" d="M 0 1.65929L -0.120933 0.66663L -2.045 0.901035L -0.738855 2.33316L 0 1.65929ZM 13.62 0L 14.62 0L 14.62 -1.12922L 13.4991 -0.992661L 13.62 0ZM 13.62 16.5929L 12.8812 17.2668L 14.62 19.1733L 14.62 16.5929L 13.62 16.5929ZM 0.120933 2.65195L 13.741 0.992661L 13.4991 -0.992661L -0.120933 0.66663L 0.120933 2.65195ZM 12.62 0L 12.62 16.5929L 14.62 16.5929L 14.62 0L 12.62 0ZM 14.3589 15.919L 0.738855 0.985427L -0.738855 2.33316L 12.8812 17.2668L 14.3589 15.919Z"/>
<path id="path58_stroke" d="M 11.9591 0L 12.6925 -0.67978L 12.1478 -1.26741L 11.4556 -0.864002L 11.9591 0ZM 0 6.96902L -0.503489 6.10502L -3.17506 7.66185L -0.0977897 7.96423L 0 6.96902ZM 20.2639 8.96017L 20.1662 9.95538L 22.7887 10.2131L 20.9974 8.28039L 20.2639 8.96017ZM 11.4556 -0.864002L -0.503489 6.10502L 0.503489 7.83302L 12.4625 0.864002L 11.4556 -0.864002ZM -0.0977897 7.96423L 20.1662 9.95538L 20.3617 7.96496L 0.0977897 5.97381L -0.0977897 7.96423ZM 20.9974 8.28039L 12.6925 -0.67978L 11.2256 0.67978L 19.5305 9.63995L 20.9974 8.28039Z"/>
<path id="path59_stroke" d="M 0 23.8938L -0.754889 23.2379L -1.55809 24.1624L -0.491678 24.7646L 0 23.8938ZM 15.281 32.5221L 14.7893 33.3929L 16.281 34.2351L 16.281 32.5221L 15.281 32.5221ZM 15.281 6.3053L 16.281 6.3053L 16.281 3.62957L 14.5261 5.64945L 15.281 6.3053ZM 18.9352 0L 19.908 -0.231484L 17.9352 0L 18.9352 0ZM 18.9352 35.177L 17.9352 35.177L 17.9352 35.7676L 18.4525 36.0527L 18.9352 35.177ZM 28.5688 40.4867L 28.0861 41.3625L 30.0646 42.4529L 29.5417 40.2552L 28.5688 40.4867ZM -0.491678 24.7646L 14.7893 33.3929L 15.7727 31.6513L 0.491678 23.023L -0.491678 24.7646ZM 16.281 32.5221L 16.281 6.3053L 14.281 6.3053L 14.281 32.5221L 16.281 32.5221ZM 14.5261 5.64945L -0.754889 23.2379L 0.754889 24.5496L 16.0359 6.96116L 14.5261 5.64945ZM 17.9352 0L 17.9352 35.177L 19.9352 35.177L 19.9352 0L 17.9352 0ZM 18.4525 36.0527L 28.0861 41.3625L 29.0515 39.6109L 19.4179 34.3012L 18.4525 36.0527ZM 29.5417 40.2552L 19.908 -0.231484L 17.9623 0.231484L 27.596 40.7182L 29.5417 40.2552Z"/>
<path id="path60_stroke" d="M 0 0L 0 -1L -2.48195 -1L -0.693276 0.720673L 0 0ZM 17.9386 17.2566L 17.2453 17.9773L 17.8794 18.5873L 18.5652 18.0359L 17.9386 17.2566ZM 31.5586 6.30531L 32.1852 7.08463L 33.5863 5.95806L 31.8902 5.36189L 31.5586 6.30531ZM 13.62 0L 13.9516 -0.943418L 13.7907 -1L 13.62 -1L 13.62 0ZM -0.693276 0.720673L 17.2453 17.9773L 18.6318 16.536L 0.693276 -0.720673L -0.693276 0.720673ZM 18.5652 18.0359L 32.1852 7.08463L 30.932 5.52598L 17.312 16.4773L 18.5652 18.0359ZM 31.8902 5.36189L 13.9516 -0.943418L 13.2884 0.943418L 31.227 7.24872L 31.8902 5.36189ZM 13.62 -1L 0 -1L 0 1L 13.62 1L 13.62 -1Z"/>
<path id="path61_stroke" d="M 15.6132 0L 16.61 -0.0802817L 16.465 -1.88005L 15.0163 -0.802334L 15.6132 0ZM 0 11.615L -0.596875 10.8127L -1.54402 11.5173L -0.693276 12.3357L 0 11.615ZM 17.9386 28.8717L 17.2453 29.5923L 19.1472 31.4219L 18.9353 28.7914L 17.9386 28.8717ZM 15.0163 -0.802334L -0.596875 10.8127L 0.596875 12.4174L 16.2101 0.802334L 15.0163 -0.802334ZM -0.693276 12.3357L 17.2453 29.5923L 18.6318 28.151L 0.693276 10.8944L -0.693276 12.3357ZM 18.9353 28.7914L 16.61 -0.0802817L 14.6164 0.0802817L 16.9418 28.9519L 18.9353 28.7914Z"/>
<path id="path62_stroke" d="M 0 0L 0.193444 -0.981111L -1.08168 -1.23253L -0.997921 0.0644475L 0 0ZM 1.99317 30.8628L 0.995254 30.9273L 1.14846 33.2995L 2.73708 31.5311L 1.99317 30.8628ZM 25.2469 4.97787L 25.9908 5.64616L 27.1667 4.33715L 25.4403 3.99676L 25.2469 4.97787ZM -0.997921 0.0644475L 0.995254 30.9273L 2.9911 30.7984L 0.997921 -0.0644475L -0.997921 0.0644475ZM 2.73708 31.5311L 25.9908 5.64616L 24.503 4.30959L 1.24927 30.1945L 2.73708 31.5311ZM 25.4403 3.99676L 0.193444 -0.981111L -0.193444 0.981111L 25.0534 5.95898L 25.4403 3.99676Z"/>
<path id="path63_stroke" d="M 26.9079 1.99115L 26.756 1.00275L 26.4066 1.05644L 26.1686 1.31769L 26.9079 1.99115ZM 39.8635 0L 40.6281 0.644519L 42.3459 -1.39325L 39.7116 -0.988395L 39.8635 0ZM 7.9727 37.8318L 7.35238 38.6162L 8.1126 39.2174L 8.73729 38.4763L 7.9727 37.8318ZM 0 31.5265L -0.739223 30.8531L -1.46137 31.6457L -0.620315 32.3109L 0 31.5265ZM 27.0598 2.97954L 40.0154 0.988395L 39.7116 -0.988395L 26.756 1.00275L 27.0598 2.97954ZM 39.0989 -0.644519L 7.20811 37.1873L 8.73729 38.4763L 40.6281 0.644519L 39.0989 -0.644519ZM 8.59301 37.0475L 0.620315 30.7422L -0.620315 32.3109L 7.35238 38.6162L 8.59301 37.0475ZM 0.739223 32.2L 27.6471 2.66461L 26.1686 1.31769L -0.739223 30.8531L 0.739223 32.2Z"/>
<path id="path64_stroke" d="M 0 0L 0 -1L -2.49372 -1L -0.690911 0.72294L 0 0ZM 17.9386 17.1438L 17.2477 17.8668L 17.8797 18.4708L 18.5627 17.9252L 17.9386 17.1438ZM 31.5586 6.26409L 32.1827 7.04542L 33.5961 5.91638L 31.8883 5.32L 31.5586 6.26409ZM 13.62 0L 13.9497 -0.944095L 13.7896 -1L 13.62 -1L 13.62 0ZM -0.690911 0.72294L 17.2477 17.8668L 18.6295 16.4209L 0.690911 -0.72294L -0.690911 0.72294ZM 18.5627 17.9252L 32.1827 7.04542L 30.9345 5.48277L 17.3144 16.3625L 18.5627 17.9252ZM 31.8883 5.32L 13.9497 -0.944095L 13.2904 0.944095L 31.2289 7.20819L 31.8883 5.32ZM 13.62 -1L 0 -1L 0 1L 13.62 1L 13.62 -1Z"/>
<path id="path65_stroke" d="M 15.6132 0L 16.6099 -0.0808064L 16.4647 -1.87275L 15.0188 -0.804203L 15.6132 0ZM 0 11.5391L -0.594355 10.7349L -1.5499 11.4411L -0.690911 12.2621L 0 11.5391ZM 17.9386 28.683L 17.2477 29.4059L 19.1477 31.2217L 18.9353 28.6021L 17.9386 28.683ZM 15.0188 -0.804203L -0.594355 10.7349L 0.594355 12.3433L 16.2076 0.804203L 15.0188 -0.804203ZM -0.690911 12.2621L 17.2477 29.4059L 18.6295 27.96L 0.690911 10.8162L -0.690911 12.2621ZM 18.9353 28.6021L 16.6099 -0.0808064L 14.6165 0.0808064L 16.9418 28.7638L 18.9353 28.6021Z"/>
<path id="path66_stroke" d="M 0 0L 0.192226 -0.981351L -1.08213 -1.23097L -0.997894 0.0648697L 0 0ZM 1.99317 30.6611L 0.995281 30.726L 1.1487 33.0859L 2.7349 31.3318L 1.99317 30.6611ZM 25.2469 4.94534L 25.9886 5.61604L 27.175 4.30401L 25.4391 3.96399L 25.2469 4.94534ZM -0.997894 0.0648697L 0.995281 30.726L 2.99107 30.5962L 0.997894 -0.0648697L -0.997894 0.0648697ZM 2.7349 31.3318L 25.9886 5.61604L 24.5052 4.27463L 1.25145 29.9904L 2.7349 31.3318ZM 25.4391 3.96399L 0.192226 -0.981351L -0.192226 0.981351L 25.0547 5.92669L 25.4391 3.96399Z"/>
<path id="path67_stroke" d="M 26.9079 1.97813L 26.7569 0.989591L 26.4088 1.04274L 26.1708 1.30226L 26.9079 1.97813ZM 39.8635 0L 40.626 0.646988L 42.3563 -1.3922L 39.7126 -0.988544L 39.8635 0ZM 7.9727 37.5846L 7.35489 38.3709L 8.11214 38.9659L 8.7352 38.2315L 7.9727 37.5846ZM 0 31.3205L -0.73702 30.6446L -1.46645 31.44L -0.617811 32.1068L 0 31.3205ZM 27.0588 2.96668L 40.0144 0.988544L 39.7126 -0.988544L 26.7569 0.989591L 27.0588 2.96668ZM 39.101 -0.646988L 7.2102 36.9376L 8.7352 38.2315L 40.626 0.646988L 39.101 -0.646988ZM 8.59051 36.7982L 0.617811 30.5341L -0.617811 32.1068L 7.35489 38.3709L 8.59051 36.7982ZM 0.73702 31.9963L 27.6449 2.65401L 26.1708 1.30226L -0.73702 30.6446L 0.73702 31.9963Z"/>
<path id="path68_stroke" d="M 0 20.5752L -0.864567 20.0727L -1.51859 21.1979L -0.262868 21.54L 0 20.5752ZM 7.30831 22.5664L 7.04544 23.5312L 8.07279 23.8111L 8.28773 22.7682L 7.30831 22.5664ZM 11.9591 0L 12.9385 0.20185L 11.0945 -0.502518L 11.9591 0ZM -0.262868 21.54L 7.04544 23.5312L 7.57118 21.6015L 0.262868 19.6104L -0.262868 21.54ZM 8.28773 22.7682L 12.9385 0.20185L 10.9796 -0.20185L 6.32889 22.3645L 8.28773 22.7682ZM 11.0945 -0.502518L -0.864567 20.0727L 0.864567 21.0777L 12.8236 0.502518L 11.0945 -0.502518Z"/>
<path id="path69_stroke" d="M 0 0L 0.888235 -0.459389L -0.983349 0.181726L 0 0ZM 3.98635 21.5708L 3.003 21.7525L 3.19876 22.8118L 4.2406 22.5379L 3.98635 21.5708ZM 10.2981 19.9115L 10.5523 20.8786L 11.7599 20.5612L 11.1863 19.4521L 10.2981 19.9115ZM -0.983349 0.181726L 3.003 21.7525L 4.9697 21.3891L 0.983349 -0.181726L -0.983349 0.181726ZM 4.2406 22.5379L 10.5523 20.8786L 10.0438 18.9444L 3.7321 20.6036L 4.2406 22.5379ZM 11.1863 19.4521L 0.888235 -0.459389L -0.888235 0.459389L 9.40983 20.3709L 11.1863 19.4521Z"/>
<path id="path70_stroke" d="M 3.65415 0L 4.64307 -0.148488L 2.67058 -0.180505L 3.65415 0ZM 0 19.9115L -0.983574 19.731L -1.20022 20.9115L 0 20.9115L 0 19.9115ZM 6.64392 19.9115L 6.64392 20.9115L 7.80528 20.9115L 7.63283 19.763L 6.64392 19.9115ZM 2.67058 -0.180505L -0.983574 19.731L 0.983574 20.092L 4.63773 0.180505L 2.67058 -0.180505ZM 0 20.9115L 6.64392 20.9115L 6.64392 18.9115L 0 18.9115L 0 20.9115ZM 7.63283 19.763L 4.64307 -0.148488L 2.66524 0.148488L 5.655 20.06L 7.63283 19.763Z"/>
<path id="path71_stroke" d="M 0 0L 0.709321 -0.704885L -1.68788 -3.11717L -0.97797 0.208746L 0 0ZM 8.35848 39.1593L 7.38051 39.368L 7.90694 41.8344L 9.21375 39.6774L 8.35848 39.1593ZM 19.9317 20.0572L 20.787 20.5754L 21.1921 19.9068L 20.6411 19.3523L 19.9317 20.0572ZM -0.97797 0.208746L 7.38051 39.368L 9.33645 38.9505L 0.97797 -0.208746L -0.97797 0.208746ZM 9.21375 39.6774L 20.787 20.5754L 19.0765 19.539L 7.5032 38.6411L 9.21375 39.6774ZM 20.6411 19.3523L 0.709321 -0.704885L -0.709321 0.704885L 19.2224 20.7621L 20.6411 19.3523Z"/>
<path id="path72_stroke" d="M 0 5.64159L -0.771613 5.0055L -1.41442 5.78526L -0.62795 6.41984L 0 5.64159ZM 4.65074 0L 4.81126 -0.987033L 4.24442 -1.07921L 3.87913 -0.636092L 4.65074 0ZM 18.9352 2.32301L 19.6419 3.03047L 21.0242 1.6496L 19.0957 1.33597L 18.9352 2.32301ZM 8.63709 12.6106L 8.00914 13.3889L 8.70829 13.953L 9.34384 13.3181L 8.63709 12.6106ZM 26.2435 2.32301L 26.0475 1.34239L 24.5426 1.64308L 25.4256 2.89834L 26.2435 2.32301ZM 37.8703 0L 38.5771 -0.707466L 38.1988 -1.08539L 37.6744 -0.980619L 37.8703 0ZM 43.5177 5.64159L 44.2376 6.3356L 44.9193 5.62837L 44.2244 4.93412L 43.5177 5.64159ZM 34.8806 14.6018L 34.0626 15.1771L 34.7597 16.168L 35.6005 15.2958L 34.8806 14.6018ZM 0.771613 6.27768L 5.42235 0.636092L 3.87913 -0.636092L -0.771613 5.0055L 0.771613 6.27768ZM 4.49022 0.987033L 18.7746 3.31004L 19.0957 1.33597L 4.81126 -0.987033L 4.49022 0.987033ZM 18.2284 1.61554L 7.93034 11.9031L 9.34384 13.3181L 19.6419 3.03047L 18.2284 1.61554ZM 9.26504 11.8324L 0.62795 4.86334L -0.62795 6.41984L 8.00914 13.3889L 9.26504 11.8324ZM 26.4394 3.30363L 38.0662 0.980619L 37.6744 -0.980619L 26.0475 1.34239L 26.4394 3.30363ZM 37.1636 0.707466L 42.8109 6.34905L 44.2244 4.93412L 38.5771 -0.707466L 37.1636 0.707466ZM 42.7977 4.94758L 34.1606 13.9078L 35.6005 15.2958L 44.2376 6.3356L 42.7977 4.94758ZM 35.6985 14.0264L 27.0614 1.74767L 25.4256 2.89834L 34.0626 15.1771L 35.6985 14.0264Z"/>
<path id="path73_stroke" d="M 10.2981 0L 11.2908 0.120452L 11.658 -2.90595L 9.56957 -0.685045L 10.2981 0ZM 0 10.9513L -0.7285 10.2663L -1.28464 10.8577L -0.820125 11.5235L 0 10.9513ZM 7.6405 21.9026L 6.82038 22.4748L 8.31796 24.6213L 8.63322 22.0231L 7.6405 21.9026ZM 9.56957 -0.685045L -0.7285 10.2663L 0.7285 11.6364L 11.0266 0.685045L 9.56957 -0.685045ZM -0.820125 11.5235L 6.82038 22.4748L 8.46063 21.3305L 0.820125 10.3791L -0.820125 11.5235ZM 8.63322 22.0231L 11.2908 0.120452L 9.30535 -0.120452L 6.64778 21.7822L 8.63322 22.0231Z"/>
<path id="path74_stroke" d="M 1.66098 0L 2.46425 -0.595618L 0.891676 -2.71643L 0.664682 -0.0859751L 1.66098 0ZM 8.3049 8.96017L 9.083 9.58831L 9.56909 8.98617L 9.10816 8.36455L 8.3049 8.96017ZM 0 19.2478L -0.996297 19.1618L -1.27768 22.4225L 0.778101 19.8759L 0 19.2478ZM 0.857712 0.595618L 7.50163 9.55579L 9.10816 8.36455L 2.46425 -0.595618L 0.857712 0.595618ZM 7.52679 8.33203L -0.778101 18.6196L 0.778101 19.8759L 9.083 9.58831L 7.52679 8.33203ZM 0.996297 19.3337L 2.65728 0.0859751L 0.664682 -0.0859751L -0.996297 19.1618L 0.996297 19.3337Z"/>
<path id="path75_stroke" d="M 14.2844 17.9203L 13.8934 18.232L 14.7752 17.8248L 14.2844 17.9203ZM 11.959 5.97345L 12.4498 5.87792L 12.4028 5.63619L 12.1825 5.52614L 11.959 5.97345ZM 0 0L 0.223425 -0.447304L -0.390986 0.311657L 0 0ZM 14.7752 17.8248L 12.4498 5.87792L 11.4683 6.06897L 13.7936 18.0159L 14.7752 17.8248ZM 12.1825 5.52614L 0.223425 -0.447304L -0.223425 0.447304L 11.7356 6.42075L 12.1825 5.52614ZM -0.390986 0.311657L 13.8934 18.232L 14.6754 17.6087L 0.390986 -0.311657L -0.390986 0.311657Z"/>
<path id="path76_stroke" d="M 15.9454 5.64159L 16.2736 6.0188L 16.9203 5.45613L 16.1122 5.17022L 15.9454 5.64159ZM 0 0L 0.166773 -0.471367L -0.858723 -0.834194L -0.466337 0.180359L 0 0ZM 5.64733 14.6018L 5.18099 14.7821L 5.43801 15.4467L 5.97553 14.979L 5.64733 14.6018ZM 16.1122 5.17022L 0.166773 -0.471367L -0.166773 0.471367L 15.7786 6.11296L 16.1122 5.17022ZM -0.466337 0.180359L 5.18099 14.7821L 6.11367 14.4214L 0.466337 -0.180359L -0.466337 0.180359ZM 5.97553 14.979L 16.2736 6.0188L 15.6172 5.26438L 5.31913 14.2246L 5.97553 14.979Z"/>
<path id="path77_stroke" d="M 7.9727 0L 8.3898 -0.275726L 8.04519 -0.79704L 7.61218 -0.346449L 7.9727 0ZM 0 8.29645L -0.360518 7.95001L -0.841718 8.45075L -0.214194 8.74825L 0 8.29645ZM 19.5996 17.5885L 19.3854 18.0403L 21.0053 18.8083L 20.0167 17.3128L 19.5996 17.5885ZM 7.61218 -0.346449L -0.360518 7.95001L 0.360518 8.6429L 8.33322 0.346449L 7.61218 -0.346449ZM -0.214194 8.74825L 19.3854 18.0403L 19.8137 17.1367L 0.214194 7.84466L -0.214194 8.74825ZM 20.0167 17.3128L 8.3898 -0.275726L 7.5556 0.275726L 19.1824 17.8642L 20.0167 17.3128Z"/>
<path id="path78_stroke" d="M 13.62 2.32301L 14.0795 2.12588L 13.9723 1.87586L 13.7041 1.83012L 13.62 2.32301ZM 0 0L 0.0840651 -0.492882L -1.75526 -0.806594L -0.319258 0.384804L 0 0ZM 19.5996 16.261L 19.2803 16.6459L 20.0591 16.0639L 19.5996 16.261ZM 13.7041 1.83012L 0.0840651 -0.492882L -0.0840651 0.492882L 13.536 2.81589L 13.7041 1.83012ZM -0.319258 0.384804L 19.2803 16.6459L 19.9188 15.8762L 0.319258 -0.384804L -0.319258 0.384804ZM 20.0591 16.0639L 14.0795 2.12588L 13.1605 2.52014L 19.1401 16.4582L 20.0591 16.0639Z"/>
<path id="path79_stroke" d="M 9.30148 0L 9.65486 -0.353733L 9.50844 -0.5L 9.30148 -0.5L 9.30148 0ZM 0 0L 0 -0.5L -1.25002 -0.5L -0.344824 0.362072L 0 0ZM 15.9454 15.1858L 15.6006 15.5479L 15.7064 15.6487L 15.8498 15.6766L 15.9454 15.1858ZM 26.5757 17.2566L 26.4801 17.7474L 28.0879 18.0606L 26.929 16.9029L 26.5757 17.2566ZM 9.30148 -0.5L 0 -0.5L 0 0.5L 9.30148 0.5L 9.30148 -0.5ZM -0.344824 0.362072L 15.6006 15.5479L 16.2902 14.8238L 0.344824 -0.362072L -0.344824 0.362072ZM 15.8498 15.6766L 26.4801 17.7474L 26.6713 16.7658L 16.041 14.6951L 15.8498 15.6766ZM 26.929 16.9029L 9.65486 -0.353733L 8.94811 0.353733L 26.2223 17.6104L 26.929 16.9029Z"/>
<path id="path80_stroke" d="M 8.63709 0L 8.97959 -0.364274L 8.81046 -0.523294L 8.57984 -0.496711L 8.63709 0ZM 0 0.995574L -0.0572546 0.498863L -0.14456 1.47422L 0 0.995574ZM 14.2844 5.30973L 14.1399 5.78838L 14.6269 4.94546L 14.2844 5.30973ZM 8.57984 -0.496711L -0.0572546 0.498863L 0.0572546 1.49229L 8.69435 0.496711L 8.57984 -0.496711ZM -0.14456 1.47422L 14.1399 5.78838L 14.429 4.83108L 0.14456 0.516928L -0.14456 1.47422ZM 14.6269 4.94546L 8.97959 -0.364274L 8.29459 0.364274L 13.9419 5.674L 14.6269 4.94546Z"/>
<path id="path81_stroke" d="M 0.996587 0L 1.31649 -0.384271L 0.633993 -0.952438L 0.50213 -0.074244L 0.996587 0ZM 8.96929 6.63716L 8.96929 7.13716L 10.3514 7.13716L 9.28919 6.25289L 8.96929 6.63716ZM 0 6.63716L -0.494457 6.56292L -0.580681 7.13716L 0 7.13716L 0 6.63716ZM 0.676687 0.384271L 8.64939 7.02143L 9.28919 6.25289L 1.31649 -0.384271L 0.676687 0.384271ZM 8.96929 6.13716L 0 6.13716L 0 7.13716L 8.96929 7.13716L 8.96929 6.13716ZM 0.494457 6.71141L 1.49104 0.074244L 0.50213 -0.074244L -0.494457 6.56292L 0.494457 6.71141Z"/>
<path id="path82_stroke" d="M 11.2947 0L 11.7878 0.0822809L 11.9314 -0.778463L 11.1162 -0.467086L 11.2947 0ZM 10.2981 5.97345L 10.2185 6.46708L 10.7094 6.54618L 10.7913 6.05573L 10.2981 5.97345ZM 0 4.31416L -0.17841 3.84707L -1.91806 4.51155L -0.0795373 4.80779L 0 4.31416ZM 10.8015 -0.0822809L 9.80489 5.89117L 10.7913 6.05573L 11.7878 0.0822809L 10.8015 -0.0822809ZM 10.3776 5.47981L 0.0795373 3.82052L -0.0795373 4.80779L 10.2185 6.46708L 10.3776 5.47981ZM 0.17841 4.78124L 11.4731 0.467086L 11.1162 -0.467086L -0.17841 3.84707L 0.17841 4.78124Z"/>
<path id="path83_stroke" d="M 6.31172 0L 6.44697 -0.481361L 6.10039 -0.578736L 5.89812 -0.280946L 6.31172 0ZM 16.942 2.98672L 17.1164 3.45532L 18.554 2.92028L 17.0772 2.50536L 16.942 2.98672ZM 0 9.29203L -0.413605 9.01108L -1.29394 10.3071L 0.174399 9.76063L 0 9.29203ZM 6.17648 0.481361L 16.8067 3.46808L 17.0772 2.50536L 6.44697 -0.481361L 6.17648 0.481361ZM 16.7676 2.51812L -0.174399 8.82343L 0.174399 9.76063L 17.1164 3.45532L 16.7676 2.51812ZM 0.413605 9.57297L 6.72533 0.280946L 5.89812 -0.280946L -0.413605 9.01108L 0.413605 9.57297Z"/>
<path id="path84_stroke" d="M 21.9249 4.40149L 21.9607 4.90021L 22.0466 3.91652L 21.9249 4.40149ZM 4.38498 0L 4.50668 -0.484964L 4.18077 -0.566749L 3.98193 -0.295877L 4.38498 0ZM 0 5.97345L -0.403059 5.67757L -1.04314 6.54952L 0.0357569 6.47217L 0 5.97345ZM 22.0466 3.91652L 4.50668 -0.484964L 4.26329 0.484964L 21.8032 4.88645L 22.0466 3.91652ZM 3.98193 -0.295877L -0.403059 5.67757L 0.403059 6.26932L 4.78804 0.295877L 3.98193 -0.295877ZM 0.0357569 6.47217L 21.9607 4.90021L 21.8892 3.90277L -0.0357569 5.47473L 0.0357569 6.47217Z"/>
<path id="path85_stroke" d="M 19.9317 0L 20.3248 0.309105L 20.9611 -0.5L 19.9317 -0.5L 19.9317 0ZM 0 0L 0 -0.5L -1.52271 -0.5L -0.296404 0.402672L 0 0ZM 12.6234 9.29203L 12.327 9.6947L 12.7171 9.98179L 13.0164 9.60113L 12.6234 9.29203ZM 19.9317 -0.5L 0 -0.5L 0 0.5L 19.9317 0.5L 19.9317 -0.5ZM -0.296404 0.402672L 12.327 9.6947L 12.9198 8.88936L 0.296404 -0.402672L -0.296404 0.402672ZM 13.0164 9.60113L 20.3248 0.309105L 19.5387 -0.309105L 12.2304 8.98292L 13.0164 9.60113Z"/>
<path id="path86_stroke" d="M 11.6269 0L 12.0299 0.295877L 13.1137 -1.18045L 11.4301 -0.459645L 11.6269 0ZM 0 4.97787L -0.19679 4.51823L 0 5.47787L 0 4.97787ZM 7.9727 4.97787L 7.9727 5.47787L 8.22592 5.47787L 8.37576 5.27375L 7.9727 4.97787ZM 11.4301 -0.459645L -0.19679 4.51823L 0.19679 5.43752L 11.8236 0.459645L 11.4301 -0.459645ZM 0 5.47787L 7.9727 5.47787L 7.9727 4.47787L 0 4.47787L 0 5.47787ZM 8.37576 5.27375L 12.0299 0.295877L 11.2238 -0.295877L 7.56964 4.68199L 8.37576 5.27375Z"/>
<path id="path87_stroke" d="M 5.64733 0L 5.91413 -0.422867L 5.51347 -0.675658L 5.23946 -0.289204L 5.64733 0ZM 0 7.96459L -0.407874 7.67539L -0.967462 8.46459L 0 8.46459L 0 7.96459ZM 18.2708 7.96459L 18.2708 8.46459L 20.0003 8.46459L 18.5376 7.54173L 18.2708 7.96459ZM 5.23946 -0.289204L -0.407874 7.67539L 0.407874 8.2538L 6.0552 0.289204L 5.23946 -0.289204ZM 0 8.46459L 18.2708 8.46459L 18.2708 7.46459L 0 7.46459L 0 8.46459ZM 18.5376 7.54173L 5.91413 -0.422867L 5.38053 0.422867L 18.004 8.38746L 18.5376 7.54173Z"/>
<path id="path88_stroke" d="M 0 0L 0 -0.5L -0.5 -0.5L -0.5 0L 0 0ZM 0 5.97345L -0.5 5.97345L -0.5 6.70574L 0.182039 6.43913L 0 5.97345ZM 15.281 0L 15.463 0.465684L 15.281 -0.5L 15.281 0ZM -0.5 0L -0.5 5.97345L 0.5 5.97345L 0.5 0L -0.5 0ZM 0.182039 6.43913L 15.463 0.465684L 15.099 -0.465684L -0.182039 5.50776L 0.182039 6.43913ZM 15.281 -0.5L 0 -0.5L 0 0.5L 15.281 0.5L 15.281 -0.5Z"/>
<path id="path89_stroke" d="M 0 0L 0.0601054 -0.496374L -0.142352 0.479308L 0 0ZM 21.9249 2.65487L 21.9763 3.15222L 21.985 2.15849L 21.9249 2.65487ZM 12.2912 3.65044L 12.1489 4.12975L 12.244 4.15799L 12.3426 4.14779L 12.2912 3.65044ZM -0.0601054 0.496374L 21.8648 3.15124L 21.985 2.15849L 0.0601054 -0.496374L -0.0601054 0.496374ZM 21.8735 2.15751L 12.2398 3.15309L 12.3426 4.14779L 21.9763 3.15222L 21.8735 2.15751ZM 12.4336 3.17113L 0.142352 -0.479308L -0.142352 0.479308L 12.1489 4.12975L 12.4336 3.17113Z"/>
<path id="path90_stroke" d="M 14.3268 17.7429L 13.9377 18.057L 14.8173 17.6462L 14.3268 17.7429ZM 11.9945 5.9143L 12.4851 5.81758L 12.4372 5.57514L 12.2156 5.46585L 11.9945 5.9143ZM 0 0L 0.221122 -0.448447L -0.389014 0.314115L 0 0ZM 14.8173 17.6462L 12.4851 5.81758L 11.5039 6.01103L 13.8362 17.8396L 14.8173 17.6462ZM 12.2156 5.46585L 0.221122 -0.448447L -0.221122 0.448447L 11.7734 6.36275L 12.2156 5.46585ZM -0.389014 0.314115L 13.9377 18.057L 14.7158 17.4288L 0.389014 -0.314115L -0.389014 0.314115Z"/>
<path id="path91_stroke" d="M 15.9927 5.58573L 16.3184 5.96502L 16.9766 5.39976L 16.1575 5.11369L 15.9927 5.58573ZM 0 0L 0.164868 -0.472037L -0.862525 -0.830872L -0.465546 0.182393L 0 0ZM 5.66407 14.4572L 5.19852 14.6396L 5.45548 15.2955L 5.98985 14.8365L 5.66407 14.4572ZM 16.1575 5.11369L 0.164868 -0.472037L -0.164868 0.472037L 15.8278 6.05777L 16.1575 5.11369ZM -0.465546 0.182393L 5.19852 14.6396L 6.12961 14.2748L 0.465546 -0.182393L -0.465546 0.182393ZM 5.98985 14.8365L 16.3184 5.96502L 15.6669 5.20644L 5.33828 14.0779L 5.98985 14.8365Z"/>
<path id="path92_stroke" d="M 7.99633 0L 8.41178 -0.278204L 8.06846 -0.790905L 7.63805 -0.348768L 7.99633 0ZM 0 8.21431L -0.358275 7.86554L -0.848581 8.36921L -0.211943 8.66717L 0 8.21431ZM 19.6576 17.4143L 19.4457 17.8672L 21.0725 18.6285L 20.0731 17.1361L 19.6576 17.4143ZM 7.63805 -0.348768L -0.358275 7.86554L 0.358275 8.56308L 8.3546 0.348768L 7.63805 -0.348768ZM -0.211943 8.66717L 19.4457 17.8672L 19.8696 16.9615L 0.211943 7.76145L -0.211943 8.66717ZM 20.0731 17.1361L 8.41178 -0.278204L 7.58088 0.278204L 19.2422 17.6925L 20.0731 17.1361Z"/>
<path id="path93_stroke" d="M 13.6604 2.30001L 14.119 2.10072L 14.0109 1.85198L 13.7434 1.80695L 13.6604 2.30001ZM 0 0L 0.0830167 -0.49306L -1.77258 -0.805488L -0.316814 0.386819L 0 0ZM 19.6576 16.1L 19.3408 16.4869L 20.1162 15.9008L 19.6576 16.1ZM 13.7434 1.80695L 0.0830167 -0.49306L -0.0830167 0.49306L 13.5774 2.79307L 13.7434 1.80695ZM -0.316814 0.386819L 19.3408 16.4869L 19.9745 15.7132L 0.316814 -0.386819L -0.316814 0.386819ZM 20.1162 15.9008L 14.119 2.10072L 13.2018 2.49929L 19.1991 16.2993L 20.1162 15.9008Z"/>
<path id="path94_stroke" d="M 9.32905 0L 9.68013 -0.356007L 9.53412 -0.5L 9.32905 -0.5L 9.32905 0ZM 0 0L 0 -0.5L -1.26179 -0.5L -0.342484 0.364287L 0 0ZM 15.9927 15.0355L 15.6502 15.3998L 15.7558 15.4991L 15.8982 15.5265L 15.9927 15.0355ZM 26.6544 17.0858L 26.56 17.5768L 28.1804 17.8884L 27.0055 16.7298L 26.6544 17.0858ZM 9.32905 -0.5L 0 -0.5L 0 0.5L 9.32905 0.5L 9.32905 -0.5ZM -0.342484 0.364287L 15.6502 15.3998L 16.3351 14.6712L 0.342484 -0.364287L -0.342484 0.364287ZM 15.8982 15.5265L 26.56 17.5768L 26.7489 16.5948L 16.0871 14.5445L 15.8982 15.5265ZM 27.0055 16.7298L 9.68013 -0.356007L 8.97797 0.356007L 26.3034 17.4418L 27.0055 16.7298Z"/>
<path id="path95_stroke" d="M 8.66269 0L 9.00284 -0.366472L 8.83444 -0.52277L 8.60616 -0.496794L 8.66269 0ZM 0 0.985717L -0.0565296 0.488923L -0.142858 1.46487L 0 0.985717ZM 14.3268 5.25716L 14.1839 5.73631L 14.6669 4.89069L 14.3268 5.25716ZM 8.60616 -0.496794L -0.0565296 0.488923L 0.0565296 1.48251L 8.71922 0.496794L 8.60616 -0.496794ZM -0.142858 1.46487L 14.1839 5.73631L 14.4696 4.778L 0.142858 0.50656L -0.142858 1.46487ZM 14.6669 4.89069L 9.00284 -0.366472L 8.32255 0.366472L 13.9866 5.62363L 14.6669 4.89069Z"/>
<path id="path96_stroke" d="M 0.999541 0L 1.317 -0.386291L 0.637486 -0.94472L 0.505227 -0.0751871L 0.999541 0ZM 8.99587 6.57145L 8.99587 7.07145L 10.3918 7.07145L 9.31333 6.18516L 8.99587 6.57145ZM 0 6.57145L -0.494315 6.49626L -0.581803 7.07145L 0 7.07145L 0 6.57145ZM 0.682084 0.386291L 8.67841 6.95774L 9.31333 6.18516L 1.317 -0.386291L 0.682084 0.386291ZM 8.99587 6.07145L 0 6.07145L 0 7.07145L 8.99587 7.07145L 8.99587 6.07145ZM 0.494315 6.64663L 1.49386 0.0751871L 0.505227 -0.0751871L -0.494315 6.49626L 0.494315 6.64663Z"/>
<path id="path97_stroke" d="M 11.3281 0L 11.8211 0.0833205L 11.9662 -0.774954L 11.1517 -0.467846L 11.3281 0ZM 10.3286 5.9143L 10.25 6.40809L 10.7391 6.48588L 10.8216 5.99762L 10.3286 5.9143ZM 0 4.27144L -0.176408 3.80359L -1.94106 4.46898L -0.0785424 4.76523L 0 4.27144ZM 10.8351 -0.0833205L 9.83558 5.83098L 10.8216 5.99762L 11.8211 0.0833205L 10.8351 -0.0833205ZM 10.4071 5.42051L 0.0785424 3.77765L -0.0785424 4.76523L 10.25 6.40809L 10.4071 5.42051ZM 0.176408 4.73929L 11.5045 0.467846L 11.1517 -0.467846L -0.176408 3.80359L 0.176408 4.73929Z"/>
<path id="path98_stroke" d="M 6.33043 0L 6.46406 -0.481811L 6.12058 -0.57708L 5.91852 -0.283429L 6.33043 0ZM 16.9922 2.95715L 17.1646 3.42648L 18.6231 2.89063L 17.1258 2.47534L 16.9922 2.95715ZM 0 9.20002L -0.411908 8.9166L -1.30281 10.2114L 0.172429 9.66935L 0 9.20002ZM 6.19679 0.481811L 16.8586 3.43896L 17.1258 2.47534L 6.46406 -0.481811L 6.19679 0.481811ZM 16.8198 2.48782L -0.172429 8.7307L 0.172429 9.66935L 17.1646 3.42648L 16.8198 2.48782ZM 0.411908 9.48345L 6.74234 0.283429L 5.91852 -0.283429L -0.411908 8.9166L 0.411908 9.48345Z"/>
<path id="path99_stroke" d="M 21.9899 4.35791L 22.0252 4.85666L 22.1101 3.87258L 21.9899 4.35791ZM 4.39798 0L 4.51821 -0.48533L 4.19528 -0.565327L 3.99676 -0.298359L 4.39798 0ZM 0 5.9143L -0.401226 5.61594L -1.05115 6.48995L 0.0353005 6.41305L 0 5.9143ZM 22.1101 3.87258L 4.51821 -0.48533L 4.27775 0.48533L 21.8697 4.84324L 22.1101 3.87258ZM 3.99676 -0.298359L -0.401226 5.61594L 0.401226 6.21266L 4.79921 0.298359L 3.99676 -0.298359ZM 0.0353005 6.41305L 22.0252 4.85666L 21.9546 3.85915L -0.0353005 5.41555L 0.0353005 6.41305Z"/>
<path id="path100_stroke" d="M 19.9908 0L 20.3819 0.311568L 21.0285 -0.5L 19.9908 -0.5L 19.9908 0ZM 0 0L 0 -0.5L -1.53866 -0.5L -0.293921 0.404488L 0 0ZM 12.6609 9.20002L 12.3669 9.60451L 12.7539 9.88568L 13.0519 9.51159L 12.6609 9.20002ZM 19.9908 -0.5L 0 -0.5L 0 0.5L 19.9908 0.5L 19.9908 -0.5ZM -0.293921 0.404488L 12.3669 9.60451L 12.9548 8.79554L 0.293921 -0.404488L -0.293921 0.404488ZM 13.0519 9.51159L 20.3819 0.311568L 19.5998 -0.311568L 12.2698 8.88846L 13.0519 9.51159Z"/>
<path id="path101_stroke" d="M 11.6613 0L 12.0625 0.298359L 13.1586 -1.17566L 11.4667 -0.460555L 11.6613 0ZM 0 4.92859L -0.194651 4.46803L 0 5.42859L 0 4.92859ZM 7.99633 4.92859L 7.99633 5.42859L 8.24761 5.42859L 8.39756 5.22694L 7.99633 4.92859ZM 11.4667 -0.460555L -0.194651 4.46803L 0.194651 5.38914L 11.856 0.460555L 11.4667 -0.460555ZM 0 5.42859L 7.99633 5.42859L 7.99633 4.42859L 0 4.42859L 0 5.42859ZM 8.39756 5.22694L 12.0625 0.298359L 11.2601 -0.298359L 7.5951 4.63023L 8.39756 5.22694Z"/>
<path id="path102_stroke" d="M 5.66407 0L 5.92841 -0.42441L 5.53106 -0.671897L 5.25797 -0.291689L 5.66407 0ZM 0 7.88574L -0.406101 7.59405L -0.974745 8.38574L 0 8.38574L 0 7.88574ZM 18.3249 7.88574L 18.3249 8.38574L 20.0734 8.38574L 18.5893 7.46133L 18.3249 7.88574ZM 5.25797 -0.291689L -0.406101 7.59405L 0.406101 8.17742L 6.07017 0.291689L 5.25797 -0.291689ZM 0 8.38574L 18.3249 8.38574L 18.3249 7.38574L 0 7.38574L 0 8.38574ZM 18.5893 7.46133L 5.92841 -0.42441L 5.39973 0.42441L 18.0606 8.31015L 18.5893 7.46133Z"/>
<path id="path103_stroke" d="M 0 0L 0 -0.5L -0.5 -0.5L -0.5 0L 0 0ZM 0 5.9143L -0.5 5.9143L -0.5 6.64319L 0.180008 6.38078L 0 5.9143ZM 15.3263 0L 15.5063 0.466473L 15.3263 -0.5L 15.3263 0ZM -0.5 0L -0.5 5.9143L 0.5 5.9143L 0.5 0L -0.5 0ZM 0.180008 6.38078L 15.5063 0.466473L 15.1463 -0.466473L -0.180008 5.44783L 0.180008 6.38078ZM 15.3263 -0.5L 0 -0.5L 0 0.5L 15.3263 0.5L 15.3263 -0.5Z"/>
<path id="path104_stroke" d="M 0 0L 0.0593454 -0.496466L -0.140671 0.479804L 0 0ZM 21.9899 2.62858L 22.0407 3.126L 22.0493 2.13211L 21.9899 2.62858ZM 12.3277 3.6143L 12.187 4.0941L 12.281 4.12165L 12.3784 4.11171L 12.3277 3.6143ZM -0.0593454 0.496466L 21.9306 3.12504L 22.0493 2.13211L 0.0593454 -0.496466L -0.0593454 0.496466ZM 21.9392 2.13116L 12.2769 3.11688L 12.3784 4.11171L 22.0407 3.126L 21.9392 2.13116ZM 12.4683 3.13449L 0.140671 -0.479804L -0.140671 0.479804L 12.187 4.0941L 12.4683 3.13449Z"/>
</defs>
</svg>
